<svg width="32" height="33" viewBox="0 0 32 33" fill="none" xmlns="http://www.w3.org/2000/svg">
<path d="M29.7164 18.612L27.3964 18.172C27.2564 18.142 27.1864 17.982 27.2564 17.862L29.4164 14.392C29.5064 14.242 29.3964 14.062 29.2264 14.072L25.1564 14.442C25.0164 14.452 24.8964 14.322 24.9364 14.182L25.5764 11.942C25.6264 11.762 25.4264 11.612 25.2664 11.712L20.9164 14.462C20.7664 14.552 20.5764 14.432 20.5964 14.262L21.8764 4.93196C21.8964 4.76196 21.7164 4.63201 21.5664 4.73201L18.2764 6.73201C18.1764 6.79201 18.0364 6.75199 17.9864 6.65199L16.1264 2.92201C16.0464 2.77201 15.8364 2.77201 15.7564 2.92201L13.8964 6.65199C13.8464 6.76199 13.7064 6.80202 13.6064 6.74202L10.2064 4.73201C10.0564 4.64201 9.86642 4.77197 9.89642 4.94197L11.5264 14.262C11.5564 14.432 11.3664 14.562 11.2164 14.472L6.60642 11.702C6.44642 11.602 6.24641 11.752 6.29641 11.932L6.94642 14.192C6.98642 14.332 6.87641 14.472 6.72641 14.452L2.65641 14.082C2.48641 14.062 2.37642 14.252 2.46642 14.402L4.62642 17.872C4.70642 17.992 4.63642 18.162 4.48642 18.182L2.16642 18.622C1.98642 18.652 1.93642 18.892 2.09642 19.002L8.63642 23.292C8.80642 23.402 8.84642 23.622 8.73642 23.792L6.80642 26.542C6.71642 26.672 6.84642 26.852 6.99642 26.792L15.3764 23.732C15.7364 23.602 16.1364 23.602 16.4964 23.732L24.8764 26.792C25.0264 26.852 25.1664 26.672 25.0664 26.542L23.1364 23.792C23.0264 23.632 23.0664 23.402 23.2364 23.292L29.7764 19.002C29.9464 18.882 29.8964 18.642 29.7164 18.612Z" fill="#F8312F"/>
<path d="M15.9464 12.082C16.4987 12.082 16.9464 12.5297 16.9464 13.082V21.2029L22.3889 18.4028C22.88 18.1502 23.4829 18.3435 23.7356 18.8346C23.9883 19.3257 23.795 19.9286 23.3039 20.1813L16.9464 23.4521V29.782C16.9464 30.3343 16.4987 30.782 15.9464 30.782C15.3941 30.782 14.9464 30.3343 14.9464 29.782V23.4522L8.58889 20.1813C8.09779 19.9286 7.9045 19.3257 8.15717 18.8346C8.40984 18.3435 9.01278 18.1502 9.50388 18.4028L14.9464 21.203V13.082C14.9464 12.5297 15.3941 12.082 15.9464 12.082Z" fill="#CA0B4A"/>
</svg>
