<svg width="31" height="40" viewBox="0 0 31 40" fill="none" xmlns="http://www.w3.org/2000/svg">
<path d="M16.214 24.8336H14.3183V37.3755H16.214V24.8336Z" fill="url(#paint0_linear_54633_139)"/>
<path d="M16.214 24.8336H14.3183V37.3755H16.214V24.8336Z" fill="url(#paint1_linear_54633_139)"/>
<path d="M16.214 24.8336H14.3183V37.3755H16.214V24.8336Z" fill="url(#paint2_linear_54633_139)"/>
<path d="M16.214 24.8336H14.3183V37.3755H16.214V24.8336Z" fill="url(#paint3_linear_54633_139)"/>
<path d="M16.214 24.8336H14.3183V37.3755H16.214V24.8336Z" fill="url(#paint4_radial_54633_139)"/>
<path d="M7.67194 31.9527C7.67194 34.9242 9.5202 37.3385 11.7097 37.3632L14.4394 37.3756C14.5721 37.3756 14.6858 37.227 14.6764 37.0413C14.5437 33.748 12.4585 31.0861 9.89933 31.0861H7.93733C7.78568 31.0861 7.67194 31.247 7.67194 31.4327V31.9527Z" fill="url(#paint5_linear_54633_139)"/>
<path d="M7.67194 31.9527C7.67194 34.9242 9.5202 37.3385 11.7097 37.3632L14.4394 37.3756C14.5721 37.3756 14.6858 37.227 14.6764 37.0413C14.5437 33.748 12.4585 31.0861 9.89933 31.0861H7.93733C7.78568 31.0861 7.67194 31.247 7.67194 31.4327V31.9527Z" fill="url(#paint6_radial_54633_139)"/>
<path d="M7.67194 31.9527C7.67194 34.9242 9.5202 37.3385 11.7097 37.3632L14.4394 37.3756C14.5721 37.3756 14.6858 37.227 14.6764 37.0413C14.5437 33.748 12.4585 31.0861 9.89933 31.0861H7.93733C7.78568 31.0861 7.67194 31.247 7.67194 31.4327V31.9527Z" fill="url(#paint7_radial_54633_139)"/>
<path d="M7.67194 31.9527C7.67194 34.9242 9.5202 37.3385 11.7097 37.3632L14.4394 37.3756C14.5721 37.3756 14.6858 37.227 14.6764 37.0413C14.5437 33.748 12.4585 31.0861 9.89933 31.0861H7.93733C7.78568 31.0861 7.67194 31.247 7.67194 31.4327V31.9527Z" fill="url(#paint8_radial_54633_139)" fill-opacity="0.6"/>
<path d="M7.67194 31.9527C7.67194 34.9242 9.5202 37.3385 11.7097 37.3632L14.4394 37.3756C14.5721 37.3756 14.6858 37.227 14.6764 37.0413C14.5437 33.748 12.4585 31.0861 9.89933 31.0861H7.93733C7.78568 31.0861 7.67194 31.247 7.67194 31.4327V31.9527Z" fill="url(#paint9_radial_54633_139)"/>
<path d="M7.67194 31.9527C7.67194 34.9242 9.5202 37.3385 11.7097 37.3632L14.4394 37.3756C14.5721 37.3756 14.6858 37.227 14.6764 37.0413C14.5437 33.748 12.4585 31.0861 9.89933 31.0861H7.93733C7.78568 31.0861 7.67194 31.247 7.67194 31.4327V31.9527Z" fill="url(#paint10_radial_54633_139)" fill-opacity="0.7"/>
<path d="M7.67194 31.9527C7.67194 34.9242 9.5202 37.3385 11.7097 37.3632L14.4394 37.3756C14.5721 37.3756 14.6858 37.227 14.6764 37.0413C14.5437 33.748 12.4585 31.0861 9.89933 31.0861H7.93733C7.78568 31.0861 7.67194 31.247 7.67194 31.4327V31.9527Z" fill="url(#paint11_linear_54633_139)"/>
<path d="M7.67194 31.9527C7.67194 34.9242 9.5202 37.3385 11.7097 37.3632L14.4394 37.3756C14.5721 37.3756 14.6858 37.227 14.6764 37.0413C14.5437 33.748 12.4585 31.0861 9.89933 31.0861H7.93733C7.78568 31.0861 7.67194 31.247 7.67194 31.4327V31.9527Z" fill="url(#paint12_radial_54633_139)"/>
<path d="M7.67194 31.9527C7.67194 34.9242 9.5202 37.3385 11.7097 37.3632L14.4394 37.3756C14.5721 37.3756 14.6858 37.227 14.6764 37.0413C14.5437 33.748 12.4585 31.0861 9.89933 31.0861H7.93733C7.78568 31.0861 7.67194 31.247 7.67194 31.4327V31.9527Z" fill="url(#paint13_radial_54633_139)" fill-opacity="0.6"/>
<path d="M7.67194 31.9527C7.67194 34.9242 9.5202 37.3385 11.7097 37.3632L14.4394 37.3756C14.5721 37.3756 14.6858 37.227 14.6764 37.0413C14.5437 33.748 12.4585 31.0861 9.89933 31.0861H7.93733C7.78568 31.0861 7.67194 31.247 7.67194 31.4327V31.9527Z" fill="url(#paint14_radial_54633_139)" fill-opacity="0.6"/>
<path d="M7.67194 31.9527C7.67194 34.9242 9.5202 37.3385 11.7097 37.3632L14.4394 37.3756C14.5721 37.3756 14.6858 37.227 14.6764 37.0413C14.5437 33.748 12.4585 31.0861 9.89933 31.0861H7.93733C7.78568 31.0861 7.67194 31.247 7.67194 31.4327V31.9527Z" fill="url(#paint15_radial_54633_139)"/>
<path d="M7.67194 31.9527C7.67194 34.9242 9.5202 37.3385 11.7097 37.3632L14.4394 37.3756C14.5721 37.3756 14.6858 37.227 14.6764 37.0413C14.5437 33.748 12.4585 31.0861 9.89933 31.0861H7.93733C7.78568 31.0861 7.67194 31.247 7.67194 31.4327V31.9527Z" fill="url(#paint16_radial_54633_139)"/>
<path d="M15.9143 36.5089C15.9143 33.5375 17.7625 31.1232 19.952 31.0985L22.6818 31.0861C22.8145 31.0861 22.9282 31.2346 22.9187 31.4204C22.786 34.7137 20.7008 37.3756 18.1417 37.3756H16.1797C16.028 37.3756 15.9143 37.2146 15.9143 37.0289V36.5089Z" fill="url(#paint17_linear_54633_139)"/>
<path d="M15.9143 36.5089C15.9143 33.5375 17.7625 31.1232 19.952 31.0985L22.6818 31.0861C22.8145 31.0861 22.9282 31.2346 22.9187 31.4204C22.786 34.7137 20.7008 37.3756 18.1417 37.3756H16.1797C16.028 37.3756 15.9143 37.2146 15.9143 37.0289V36.5089Z" fill="url(#paint18_radial_54633_139)"/>
<path d="M15.9143 36.5089C15.9143 33.5375 17.7625 31.1232 19.952 31.0985L22.6818 31.0861C22.8145 31.0861 22.9282 31.2346 22.9187 31.4204C22.786 34.7137 20.7008 37.3756 18.1417 37.3756H16.1797C16.028 37.3756 15.9143 37.2146 15.9143 37.0289V36.5089Z" fill="url(#paint19_radial_54633_139)"/>
<path d="M15.9143 36.5089C15.9143 33.5375 17.7625 31.1232 19.952 31.0985L22.6818 31.0861C22.8145 31.0861 22.9282 31.2346 22.9187 31.4204C22.786 34.7137 20.7008 37.3756 18.1417 37.3756H16.1797C16.028 37.3756 15.9143 37.2146 15.9143 37.0289V36.5089Z" fill="url(#paint20_radial_54633_139)"/>
<path d="M15.9143 36.5089C15.9143 33.5375 17.7625 31.1232 19.952 31.0985L22.6818 31.0861C22.8145 31.0861 22.9282 31.2346 22.9187 31.4204C22.786 34.7137 20.7008 37.3756 18.1417 37.3756H16.1797C16.028 37.3756 15.9143 37.2146 15.9143 37.0289V36.5089Z" fill="url(#paint21_radial_54633_139)"/>
<path d="M15.9143 36.5089C15.9143 33.5375 17.7625 31.1232 19.952 31.0985L22.6818 31.0861C22.8145 31.0861 22.9282 31.2346 22.9187 31.4204C22.786 34.7137 20.7008 37.3756 18.1417 37.3756H16.1797C16.028 37.3756 15.9143 37.2146 15.9143 37.0289V36.5089Z" fill="url(#paint22_radial_54633_139)"/>
<path d="M15.9143 36.5089C15.9143 33.5375 17.7625 31.1232 19.952 31.0985L22.6818 31.0861C22.8145 31.0861 22.9282 31.2346 22.9187 31.4204C22.786 34.7137 20.7008 37.3756 18.1417 37.3756H16.1797C16.028 37.3756 15.9143 37.2146 15.9143 37.0289V36.5089Z" fill="url(#paint23_radial_54633_139)"/>
<path d="M15.9143 36.5089C15.9143 33.5375 17.7625 31.1232 19.952 31.0985L22.6818 31.0861C22.8145 31.0861 22.9282 31.2346 22.9187 31.4204C22.786 34.7137 20.7008 37.3756 18.1417 37.3756H16.1797C16.028 37.3756 15.9143 37.2146 15.9143 37.0289V36.5089Z" fill="url(#paint24_linear_54633_139)"/>
<path d="M15.9143 36.5089C15.9143 33.5375 17.7625 31.1232 19.952 31.0985L22.6818 31.0861C22.8145 31.0861 22.9282 31.2346 22.9187 31.4204C22.786 34.7137 20.7008 37.3756 18.1417 37.3756H16.1797C16.028 37.3756 15.9143 37.2146 15.9143 37.0289V36.5089Z" fill="url(#paint25_linear_54633_139)"/>
<path d="M15.9143 36.5089C15.9143 33.5375 17.7625 31.1232 19.952 31.0985L22.6818 31.0861C22.8145 31.0861 22.9282 31.2346 22.9187 31.4204C22.786 34.7137 20.7008 37.3756 18.1417 37.3756H16.1797C16.028 37.3756 15.9143 37.2146 15.9143 37.0289V36.5089Z" fill="url(#paint26_radial_54633_139)"/>
<path d="M15.9143 36.5089C15.9143 33.5375 17.7625 31.1232 19.952 31.0985L22.6818 31.0861C22.8145 31.0861 22.9282 31.2346 22.9187 31.4204C22.786 34.7137 20.7008 37.3756 18.1417 37.3756H16.1797C16.028 37.3756 15.9143 37.2146 15.9143 37.0289V36.5089Z" fill="url(#paint27_radial_54633_139)"/>
<path d="M25.5405 18.2719C25.6637 16.9471 24.4126 15.6223 22.6023 14.9661C24.1472 13.5919 24.9908 11.809 24.5453 10.6204C24.0998 9.41947 22.498 9.19661 20.7066 9.93947C21.427 7.68614 21.3985 5.59376 20.5265 4.91281C19.7304 4.28138 18.4603 5.01185 17.3323 6.58423C17.0196 4.47947 16.2423 2.99376 15.3135 2.98138C14.3088 2.94423 13.4463 4.62804 13.124 6.96804C11.9297 5.17281 10.5175 4.29376 9.67391 4.98709C8.79244 5.70519 8.80191 7.88423 9.58861 10.1747C7.74983 9.40709 6.10061 9.65471 5.65513 10.8928C5.22861 12.0938 6.10061 13.8642 7.674 15.2138C5.88261 15.9071 4.65044 17.2442 4.79261 18.569C4.93478 19.8938 6.40391 20.748 8.29009 20.7728C7.07687 22.6299 6.60296 24.6233 7.27591 25.6385C7.94887 26.6538 9.54122 26.3195 11.1241 24.9947C10.8777 27.409 11.3231 29.4271 12.2994 29.7985C13.2851 30.1699 14.4794 28.7585 15.2566 26.5176C16.0623 28.7214 17.266 30.0957 18.2423 29.7119C19.2185 29.328 19.645 27.2852 19.3607 24.8585C20.953 26.1338 22.5359 26.4309 23.1899 25.4157C23.8534 24.388 23.351 22.3823 22.0999 20.5499C23.9671 20.4757 25.4173 19.5966 25.5405 18.2719ZM15.5978 14.5204C15.6831 14.669 15.7874 14.7928 15.9106 14.8919C16.0623 15.0033 16.2234 15.0652 16.4035 15.0899C16.413 15.3128 16.4414 15.5233 16.5172 15.709C16.593 15.9071 16.7068 16.0804 16.849 16.229C16.7637 16.4147 16.7068 16.6128 16.6878 16.8357C16.6689 17.0585 16.6973 17.2814 16.7447 17.5042C16.593 17.6033 16.4603 17.7271 16.3561 17.888C16.2423 18.0614 16.176 18.2719 16.1286 18.4947C15.958 18.4699 15.7969 18.4823 15.6452 18.5442C15.4841 18.6061 15.3324 18.7299 15.1997 18.8909C15.067 18.7547 14.9249 18.6433 14.7732 18.5814C14.6026 18.5195 14.432 18.5195 14.2614 18.5566C14.214 18.3461 14.1382 18.1604 14.0244 17.9995C13.9107 17.8261 13.7685 17.7023 13.6074 17.6033C13.6548 17.3928 13.6643 17.1823 13.6453 16.9719C13.6169 16.749 13.5505 16.5385 13.4557 16.3404C13.579 16.1919 13.6832 16.0309 13.7496 15.8328C13.8254 15.6099 13.8538 15.3623 13.8443 15.1023C14.0434 15.0776 14.233 15.028 14.3941 14.8919C14.5173 14.7928 14.6216 14.6566 14.7069 14.508C14.849 14.5823 14.9912 14.6319 15.1429 14.6319C15.304 14.6319 15.4557 14.5947 15.5978 14.5204Z" fill="url(#paint28_linear_54633_139)"/>
<path d="M25.5405 18.2719C25.6637 16.9471 24.4126 15.6223 22.6023 14.9661C24.1472 13.5919 24.9908 11.809 24.5453 10.6204C24.0998 9.41947 22.498 9.19661 20.7066 9.93947C21.427 7.68614 21.3985 5.59376 20.5265 4.91281C19.7304 4.28138 18.4603 5.01185 17.3323 6.58423C17.0196 4.47947 16.2423 2.99376 15.3135 2.98138C14.3088 2.94423 13.4463 4.62804 13.124 6.96804C11.9297 5.17281 10.5175 4.29376 9.67391 4.98709C8.79244 5.70519 8.80191 7.88423 9.58861 10.1747C7.74983 9.40709 6.10061 9.65471 5.65513 10.8928C5.22861 12.0938 6.10061 13.8642 7.674 15.2138C5.88261 15.9071 4.65044 17.2442 4.79261 18.569C4.93478 19.8938 6.40391 20.748 8.29009 20.7728C7.07687 22.6299 6.60296 24.6233 7.27591 25.6385C7.94887 26.6538 9.54122 26.3195 11.1241 24.9947C10.8777 27.409 11.3231 29.4271 12.2994 29.7985C13.2851 30.1699 14.4794 28.7585 15.2566 26.5176C16.0623 28.7214 17.266 30.0957 18.2423 29.7119C19.2185 29.328 19.645 27.2852 19.3607 24.8585C20.953 26.1338 22.5359 26.4309 23.1899 25.4157C23.8534 24.388 23.351 22.3823 22.0999 20.5499C23.9671 20.4757 25.4173 19.5966 25.5405 18.2719ZM15.5978 14.5204C15.6831 14.669 15.7874 14.7928 15.9106 14.8919C16.0623 15.0033 16.2234 15.0652 16.4035 15.0899C16.413 15.3128 16.4414 15.5233 16.5172 15.709C16.593 15.9071 16.7068 16.0804 16.849 16.229C16.7637 16.4147 16.7068 16.6128 16.6878 16.8357C16.6689 17.0585 16.6973 17.2814 16.7447 17.5042C16.593 17.6033 16.4603 17.7271 16.3561 17.888C16.2423 18.0614 16.176 18.2719 16.1286 18.4947C15.958 18.4699 15.7969 18.4823 15.6452 18.5442C15.4841 18.6061 15.3324 18.7299 15.1997 18.8909C15.067 18.7547 14.9249 18.6433 14.7732 18.5814C14.6026 18.5195 14.432 18.5195 14.2614 18.5566C14.214 18.3461 14.1382 18.1604 14.0244 17.9995C13.9107 17.8261 13.7685 17.7023 13.6074 17.6033C13.6548 17.3928 13.6643 17.1823 13.6453 16.9719C13.6169 16.749 13.5505 16.5385 13.4557 16.3404C13.579 16.1919 13.6832 16.0309 13.7496 15.8328C13.8254 15.6099 13.8538 15.3623 13.8443 15.1023C14.0434 15.0776 14.233 15.028 14.3941 14.8919C14.5173 14.7928 14.6216 14.6566 14.7069 14.508C14.849 14.5823 14.9912 14.6319 15.1429 14.6319C15.304 14.6319 15.4557 14.5947 15.5978 14.5204Z" fill="url(#paint29_radial_54633_139)"/>
<path d="M25.5405 18.2719C25.6637 16.9471 24.4126 15.6223 22.6023 14.9661C24.1472 13.5919 24.9908 11.809 24.5453 10.6204C24.0998 9.41947 22.498 9.19661 20.7066 9.93947C21.427 7.68614 21.3985 5.59376 20.5265 4.91281C19.7304 4.28138 18.4603 5.01185 17.3323 6.58423C17.0196 4.47947 16.2423 2.99376 15.3135 2.98138C14.3088 2.94423 13.4463 4.62804 13.124 6.96804C11.9297 5.17281 10.5175 4.29376 9.67391 4.98709C8.79244 5.70519 8.80191 7.88423 9.58861 10.1747C7.74983 9.40709 6.10061 9.65471 5.65513 10.8928C5.22861 12.0938 6.10061 13.8642 7.674 15.2138C5.88261 15.9071 4.65044 17.2442 4.79261 18.569C4.93478 19.8938 6.40391 20.748 8.29009 20.7728C7.07687 22.6299 6.60296 24.6233 7.27591 25.6385C7.94887 26.6538 9.54122 26.3195 11.1241 24.9947C10.8777 27.409 11.3231 29.4271 12.2994 29.7985C13.2851 30.1699 14.4794 28.7585 15.2566 26.5176C16.0623 28.7214 17.266 30.0957 18.2423 29.7119C19.2185 29.328 19.645 27.2852 19.3607 24.8585C20.953 26.1338 22.5359 26.4309 23.1899 25.4157C23.8534 24.388 23.351 22.3823 22.0999 20.5499C23.9671 20.4757 25.4173 19.5966 25.5405 18.2719ZM15.5978 14.5204C15.6831 14.669 15.7874 14.7928 15.9106 14.8919C16.0623 15.0033 16.2234 15.0652 16.4035 15.0899C16.413 15.3128 16.4414 15.5233 16.5172 15.709C16.593 15.9071 16.7068 16.0804 16.849 16.229C16.7637 16.4147 16.7068 16.6128 16.6878 16.8357C16.6689 17.0585 16.6973 17.2814 16.7447 17.5042C16.593 17.6033 16.4603 17.7271 16.3561 17.888C16.2423 18.0614 16.176 18.2719 16.1286 18.4947C15.958 18.4699 15.7969 18.4823 15.6452 18.5442C15.4841 18.6061 15.3324 18.7299 15.1997 18.8909C15.067 18.7547 14.9249 18.6433 14.7732 18.5814C14.6026 18.5195 14.432 18.5195 14.2614 18.5566C14.214 18.3461 14.1382 18.1604 14.0244 17.9995C13.9107 17.8261 13.7685 17.7023 13.6074 17.6033C13.6548 17.3928 13.6643 17.1823 13.6453 16.9719C13.6169 16.749 13.5505 16.5385 13.4557 16.3404C13.579 16.1919 13.6832 16.0309 13.7496 15.8328C13.8254 15.6099 13.8538 15.3623 13.8443 15.1023C14.0434 15.0776 14.233 15.028 14.3941 14.8919C14.5173 14.7928 14.6216 14.6566 14.7069 14.508C14.849 14.5823 14.9912 14.6319 15.1429 14.6319C15.304 14.6319 15.4557 14.5947 15.5978 14.5204Z" fill="url(#paint30_radial_54633_139)"/>
<path d="M25.5405 18.2719C25.6637 16.9471 24.4126 15.6223 22.6023 14.9661C24.1472 13.5919 24.9908 11.809 24.5453 10.6204C24.0998 9.41947 22.498 9.19661 20.7066 9.93947C21.427 7.68614 21.3985 5.59376 20.5265 4.91281C19.7304 4.28138 18.4603 5.01185 17.3323 6.58423C17.0196 4.47947 16.2423 2.99376 15.3135 2.98138C14.3088 2.94423 13.4463 4.62804 13.124 6.96804C11.9297 5.17281 10.5175 4.29376 9.67391 4.98709C8.79244 5.70519 8.80191 7.88423 9.58861 10.1747C7.74983 9.40709 6.10061 9.65471 5.65513 10.8928C5.22861 12.0938 6.10061 13.8642 7.674 15.2138C5.88261 15.9071 4.65044 17.2442 4.79261 18.569C4.93478 19.8938 6.40391 20.748 8.29009 20.7728C7.07687 22.6299 6.60296 24.6233 7.27591 25.6385C7.94887 26.6538 9.54122 26.3195 11.1241 24.9947C10.8777 27.409 11.3231 29.4271 12.2994 29.7985C13.2851 30.1699 14.4794 28.7585 15.2566 26.5176C16.0623 28.7214 17.266 30.0957 18.2423 29.7119C19.2185 29.328 19.645 27.2852 19.3607 24.8585C20.953 26.1338 22.5359 26.4309 23.1899 25.4157C23.8534 24.388 23.351 22.3823 22.0999 20.5499C23.9671 20.4757 25.4173 19.5966 25.5405 18.2719ZM15.5978 14.5204C15.6831 14.669 15.7874 14.7928 15.9106 14.8919C16.0623 15.0033 16.2234 15.0652 16.4035 15.0899C16.413 15.3128 16.4414 15.5233 16.5172 15.709C16.593 15.9071 16.7068 16.0804 16.849 16.229C16.7637 16.4147 16.7068 16.6128 16.6878 16.8357C16.6689 17.0585 16.6973 17.2814 16.7447 17.5042C16.593 17.6033 16.4603 17.7271 16.3561 17.888C16.2423 18.0614 16.176 18.2719 16.1286 18.4947C15.958 18.4699 15.7969 18.4823 15.6452 18.5442C15.4841 18.6061 15.3324 18.7299 15.1997 18.8909C15.067 18.7547 14.9249 18.6433 14.7732 18.5814C14.6026 18.5195 14.432 18.5195 14.2614 18.5566C14.214 18.3461 14.1382 18.1604 14.0244 17.9995C13.9107 17.8261 13.7685 17.7023 13.6074 17.6033C13.6548 17.3928 13.6643 17.1823 13.6453 16.9719C13.6169 16.749 13.5505 16.5385 13.4557 16.3404C13.579 16.1919 13.6832 16.0309 13.7496 15.8328C13.8254 15.6099 13.8538 15.3623 13.8443 15.1023C14.0434 15.0776 14.233 15.028 14.3941 14.8919C14.5173 14.7928 14.6216 14.6566 14.7069 14.508C14.849 14.5823 14.9912 14.6319 15.1429 14.6319C15.304 14.6319 15.4557 14.5947 15.5978 14.5204Z" fill="url(#paint31_radial_54633_139)" fill-opacity="0.6"/>
<path d="M25.5405 18.2719C25.6637 16.9471 24.4126 15.6223 22.6023 14.9661C24.1472 13.5919 24.9908 11.809 24.5453 10.6204C24.0998 9.41947 22.498 9.19661 20.7066 9.93947C21.427 7.68614 21.3985 5.59376 20.5265 4.91281C19.7304 4.28138 18.4603 5.01185 17.3323 6.58423C17.0196 4.47947 16.2423 2.99376 15.3135 2.98138C14.3088 2.94423 13.4463 4.62804 13.124 6.96804C11.9297 5.17281 10.5175 4.29376 9.67391 4.98709C8.79244 5.70519 8.80191 7.88423 9.58861 10.1747C7.74983 9.40709 6.10061 9.65471 5.65513 10.8928C5.22861 12.0938 6.10061 13.8642 7.674 15.2138C5.88261 15.9071 4.65044 17.2442 4.79261 18.569C4.93478 19.8938 6.40391 20.748 8.29009 20.7728C7.07687 22.6299 6.60296 24.6233 7.27591 25.6385C7.94887 26.6538 9.54122 26.3195 11.1241 24.9947C10.8777 27.409 11.3231 29.4271 12.2994 29.7985C13.2851 30.1699 14.4794 28.7585 15.2566 26.5176C16.0623 28.7214 17.266 30.0957 18.2423 29.7119C19.2185 29.328 19.645 27.2852 19.3607 24.8585C20.953 26.1338 22.5359 26.4309 23.1899 25.4157C23.8534 24.388 23.351 22.3823 22.0999 20.5499C23.9671 20.4757 25.4173 19.5966 25.5405 18.2719ZM15.5978 14.5204C15.6831 14.669 15.7874 14.7928 15.9106 14.8919C16.0623 15.0033 16.2234 15.0652 16.4035 15.0899C16.413 15.3128 16.4414 15.5233 16.5172 15.709C16.593 15.9071 16.7068 16.0804 16.849 16.229C16.7637 16.4147 16.7068 16.6128 16.6878 16.8357C16.6689 17.0585 16.6973 17.2814 16.7447 17.5042C16.593 17.6033 16.4603 17.7271 16.3561 17.888C16.2423 18.0614 16.176 18.2719 16.1286 18.4947C15.958 18.4699 15.7969 18.4823 15.6452 18.5442C15.4841 18.6061 15.3324 18.7299 15.1997 18.8909C15.067 18.7547 14.9249 18.6433 14.7732 18.5814C14.6026 18.5195 14.432 18.5195 14.2614 18.5566C14.214 18.3461 14.1382 18.1604 14.0244 17.9995C13.9107 17.8261 13.7685 17.7023 13.6074 17.6033C13.6548 17.3928 13.6643 17.1823 13.6453 16.9719C13.6169 16.749 13.5505 16.5385 13.4557 16.3404C13.579 16.1919 13.6832 16.0309 13.7496 15.8328C13.8254 15.6099 13.8538 15.3623 13.8443 15.1023C14.0434 15.0776 14.233 15.028 14.3941 14.8919C14.5173 14.7928 14.6216 14.6566 14.7069 14.508C14.849 14.5823 14.9912 14.6319 15.1429 14.6319C15.304 14.6319 15.4557 14.5947 15.5978 14.5204Z" fill="url(#paint32_radial_54633_139)" fill-opacity="0.6"/>
<path d="M25.5405 18.2719C25.6637 16.9471 24.4126 15.6223 22.6023 14.9661C24.1472 13.5919 24.9908 11.809 24.5453 10.6204C24.0998 9.41947 22.498 9.19661 20.7066 9.93947C21.427 7.68614 21.3985 5.59376 20.5265 4.91281C19.7304 4.28138 18.4603 5.01185 17.3323 6.58423C17.0196 4.47947 16.2423 2.99376 15.3135 2.98138C14.3088 2.94423 13.4463 4.62804 13.124 6.96804C11.9297 5.17281 10.5175 4.29376 9.67391 4.98709C8.79244 5.70519 8.80191 7.88423 9.58861 10.1747C7.74983 9.40709 6.10061 9.65471 5.65513 10.8928C5.22861 12.0938 6.10061 13.8642 7.674 15.2138C5.88261 15.9071 4.65044 17.2442 4.79261 18.569C4.93478 19.8938 6.40391 20.748 8.29009 20.7728C7.07687 22.6299 6.60296 24.6233 7.27591 25.6385C7.94887 26.6538 9.54122 26.3195 11.1241 24.9947C10.8777 27.409 11.3231 29.4271 12.2994 29.7985C13.2851 30.1699 14.4794 28.7585 15.2566 26.5176C16.0623 28.7214 17.266 30.0957 18.2423 29.7119C19.2185 29.328 19.645 27.2852 19.3607 24.8585C20.953 26.1338 22.5359 26.4309 23.1899 25.4157C23.8534 24.388 23.351 22.3823 22.0999 20.5499C23.9671 20.4757 25.4173 19.5966 25.5405 18.2719ZM15.5978 14.5204C15.6831 14.669 15.7874 14.7928 15.9106 14.8919C16.0623 15.0033 16.2234 15.0652 16.4035 15.0899C16.413 15.3128 16.4414 15.5233 16.5172 15.709C16.593 15.9071 16.7068 16.0804 16.849 16.229C16.7637 16.4147 16.7068 16.6128 16.6878 16.8357C16.6689 17.0585 16.6973 17.2814 16.7447 17.5042C16.593 17.6033 16.4603 17.7271 16.3561 17.888C16.2423 18.0614 16.176 18.2719 16.1286 18.4947C15.958 18.4699 15.7969 18.4823 15.6452 18.5442C15.4841 18.6061 15.3324 18.7299 15.1997 18.8909C15.067 18.7547 14.9249 18.6433 14.7732 18.5814C14.6026 18.5195 14.432 18.5195 14.2614 18.5566C14.214 18.3461 14.1382 18.1604 14.0244 17.9995C13.9107 17.8261 13.7685 17.7023 13.6074 17.6033C13.6548 17.3928 13.6643 17.1823 13.6453 16.9719C13.6169 16.749 13.5505 16.5385 13.4557 16.3404C13.579 16.1919 13.6832 16.0309 13.7496 15.8328C13.8254 15.6099 13.8538 15.3623 13.8443 15.1023C14.0434 15.0776 14.233 15.028 14.3941 14.8919C14.5173 14.7928 14.6216 14.6566 14.7069 14.508C14.849 14.5823 14.9912 14.6319 15.1429 14.6319C15.304 14.6319 15.4557 14.5947 15.5978 14.5204Z" fill="url(#paint33_radial_54633_139)" fill-opacity="0.8"/>
<path d="M25.5405 18.2719C25.6637 16.9471 24.4126 15.6223 22.6023 14.9661C24.1472 13.5919 24.9908 11.809 24.5453 10.6204C24.0998 9.41947 22.498 9.19661 20.7066 9.93947C21.427 7.68614 21.3985 5.59376 20.5265 4.91281C19.7304 4.28138 18.4603 5.01185 17.3323 6.58423C17.0196 4.47947 16.2423 2.99376 15.3135 2.98138C14.3088 2.94423 13.4463 4.62804 13.124 6.96804C11.9297 5.17281 10.5175 4.29376 9.67391 4.98709C8.79244 5.70519 8.80191 7.88423 9.58861 10.1747C7.74983 9.40709 6.10061 9.65471 5.65513 10.8928C5.22861 12.0938 6.10061 13.8642 7.674 15.2138C5.88261 15.9071 4.65044 17.2442 4.79261 18.569C4.93478 19.8938 6.40391 20.748 8.29009 20.7728C7.07687 22.6299 6.60296 24.6233 7.27591 25.6385C7.94887 26.6538 9.54122 26.3195 11.1241 24.9947C10.8777 27.409 11.3231 29.4271 12.2994 29.7985C13.2851 30.1699 14.4794 28.7585 15.2566 26.5176C16.0623 28.7214 17.266 30.0957 18.2423 29.7119C19.2185 29.328 19.645 27.2852 19.3607 24.8585C20.953 26.1338 22.5359 26.4309 23.1899 25.4157C23.8534 24.388 23.351 22.3823 22.0999 20.5499C23.9671 20.4757 25.4173 19.5966 25.5405 18.2719ZM15.5978 14.5204C15.6831 14.669 15.7874 14.7928 15.9106 14.8919C16.0623 15.0033 16.2234 15.0652 16.4035 15.0899C16.413 15.3128 16.4414 15.5233 16.5172 15.709C16.593 15.9071 16.7068 16.0804 16.849 16.229C16.7637 16.4147 16.7068 16.6128 16.6878 16.8357C16.6689 17.0585 16.6973 17.2814 16.7447 17.5042C16.593 17.6033 16.4603 17.7271 16.3561 17.888C16.2423 18.0614 16.176 18.2719 16.1286 18.4947C15.958 18.4699 15.7969 18.4823 15.6452 18.5442C15.4841 18.6061 15.3324 18.7299 15.1997 18.8909C15.067 18.7547 14.9249 18.6433 14.7732 18.5814C14.6026 18.5195 14.432 18.5195 14.2614 18.5566C14.214 18.3461 14.1382 18.1604 14.0244 17.9995C13.9107 17.8261 13.7685 17.7023 13.6074 17.6033C13.6548 17.3928 13.6643 17.1823 13.6453 16.9719C13.6169 16.749 13.5505 16.5385 13.4557 16.3404C13.579 16.1919 13.6832 16.0309 13.7496 15.8328C13.8254 15.6099 13.8538 15.3623 13.8443 15.1023C14.0434 15.0776 14.233 15.028 14.3941 14.8919C14.5173 14.7928 14.6216 14.6566 14.7069 14.508C14.849 14.5823 14.9912 14.6319 15.1429 14.6319C15.304 14.6319 15.4557 14.5947 15.5978 14.5204Z" fill="url(#paint34_radial_54633_139)"/>
<path d="M25.5405 18.2719C25.6637 16.9471 24.4126 15.6223 22.6023 14.9661C24.1472 13.5919 24.9908 11.809 24.5453 10.6204C24.0998 9.41947 22.498 9.19661 20.7066 9.93947C21.427 7.68614 21.3985 5.59376 20.5265 4.91281C19.7304 4.28138 18.4603 5.01185 17.3323 6.58423C17.0196 4.47947 16.2423 2.99376 15.3135 2.98138C14.3088 2.94423 13.4463 4.62804 13.124 6.96804C11.9297 5.17281 10.5175 4.29376 9.67391 4.98709C8.79244 5.70519 8.80191 7.88423 9.58861 10.1747C7.74983 9.40709 6.10061 9.65471 5.65513 10.8928C5.22861 12.0938 6.10061 13.8642 7.674 15.2138C5.88261 15.9071 4.65044 17.2442 4.79261 18.569C4.93478 19.8938 6.40391 20.748 8.29009 20.7728C7.07687 22.6299 6.60296 24.6233 7.27591 25.6385C7.94887 26.6538 9.54122 26.3195 11.1241 24.9947C10.8777 27.409 11.3231 29.4271 12.2994 29.7985C13.2851 30.1699 14.4794 28.7585 15.2566 26.5176C16.0623 28.7214 17.266 30.0957 18.2423 29.7119C19.2185 29.328 19.645 27.2852 19.3607 24.8585C20.953 26.1338 22.5359 26.4309 23.1899 25.4157C23.8534 24.388 23.351 22.3823 22.0999 20.5499C23.9671 20.4757 25.4173 19.5966 25.5405 18.2719ZM15.5978 14.5204C15.6831 14.669 15.7874 14.7928 15.9106 14.8919C16.0623 15.0033 16.2234 15.0652 16.4035 15.0899C16.413 15.3128 16.4414 15.5233 16.5172 15.709C16.593 15.9071 16.7068 16.0804 16.849 16.229C16.7637 16.4147 16.7068 16.6128 16.6878 16.8357C16.6689 17.0585 16.6973 17.2814 16.7447 17.5042C16.593 17.6033 16.4603 17.7271 16.3561 17.888C16.2423 18.0614 16.176 18.2719 16.1286 18.4947C15.958 18.4699 15.7969 18.4823 15.6452 18.5442C15.4841 18.6061 15.3324 18.7299 15.1997 18.8909C15.067 18.7547 14.9249 18.6433 14.7732 18.5814C14.6026 18.5195 14.432 18.5195 14.2614 18.5566C14.214 18.3461 14.1382 18.1604 14.0244 17.9995C13.9107 17.8261 13.7685 17.7023 13.6074 17.6033C13.6548 17.3928 13.6643 17.1823 13.6453 16.9719C13.6169 16.749 13.5505 16.5385 13.4557 16.3404C13.579 16.1919 13.6832 16.0309 13.7496 15.8328C13.8254 15.6099 13.8538 15.3623 13.8443 15.1023C14.0434 15.0776 14.233 15.028 14.3941 14.8919C14.5173 14.7928 14.6216 14.6566 14.7069 14.508C14.849 14.5823 14.9912 14.6319 15.1429 14.6319C15.304 14.6319 15.4557 14.5947 15.5978 14.5204Z" fill="url(#paint35_radial_54633_139)"/>
<path d="M25.5405 18.2719C25.6637 16.9471 24.4126 15.6223 22.6023 14.9661C24.1472 13.5919 24.9908 11.809 24.5453 10.6204C24.0998 9.41947 22.498 9.19661 20.7066 9.93947C21.427 7.68614 21.3985 5.59376 20.5265 4.91281C19.7304 4.28138 18.4603 5.01185 17.3323 6.58423C17.0196 4.47947 16.2423 2.99376 15.3135 2.98138C14.3088 2.94423 13.4463 4.62804 13.124 6.96804C11.9297 5.17281 10.5175 4.29376 9.67391 4.98709C8.79244 5.70519 8.80191 7.88423 9.58861 10.1747C7.74983 9.40709 6.10061 9.65471 5.65513 10.8928C5.22861 12.0938 6.10061 13.8642 7.674 15.2138C5.88261 15.9071 4.65044 17.2442 4.79261 18.569C4.93478 19.8938 6.40391 20.748 8.29009 20.7728C7.07687 22.6299 6.60296 24.6233 7.27591 25.6385C7.94887 26.6538 9.54122 26.3195 11.1241 24.9947C10.8777 27.409 11.3231 29.4271 12.2994 29.7985C13.2851 30.1699 14.4794 28.7585 15.2566 26.5176C16.0623 28.7214 17.266 30.0957 18.2423 29.7119C19.2185 29.328 19.645 27.2852 19.3607 24.8585C20.953 26.1338 22.5359 26.4309 23.1899 25.4157C23.8534 24.388 23.351 22.3823 22.0999 20.5499C23.9671 20.4757 25.4173 19.5966 25.5405 18.2719ZM15.5978 14.5204C15.6831 14.669 15.7874 14.7928 15.9106 14.8919C16.0623 15.0033 16.2234 15.0652 16.4035 15.0899C16.413 15.3128 16.4414 15.5233 16.5172 15.709C16.593 15.9071 16.7068 16.0804 16.849 16.229C16.7637 16.4147 16.7068 16.6128 16.6878 16.8357C16.6689 17.0585 16.6973 17.2814 16.7447 17.5042C16.593 17.6033 16.4603 17.7271 16.3561 17.888C16.2423 18.0614 16.176 18.2719 16.1286 18.4947C15.958 18.4699 15.7969 18.4823 15.6452 18.5442C15.4841 18.6061 15.3324 18.7299 15.1997 18.8909C15.067 18.7547 14.9249 18.6433 14.7732 18.5814C14.6026 18.5195 14.432 18.5195 14.2614 18.5566C14.214 18.3461 14.1382 18.1604 14.0244 17.9995C13.9107 17.8261 13.7685 17.7023 13.6074 17.6033C13.6548 17.3928 13.6643 17.1823 13.6453 16.9719C13.6169 16.749 13.5505 16.5385 13.4557 16.3404C13.579 16.1919 13.6832 16.0309 13.7496 15.8328C13.8254 15.6099 13.8538 15.3623 13.8443 15.1023C14.0434 15.0776 14.233 15.028 14.3941 14.8919C14.5173 14.7928 14.6216 14.6566 14.7069 14.508C14.849 14.5823 14.9912 14.6319 15.1429 14.6319C15.304 14.6319 15.4557 14.5947 15.5978 14.5204Z" fill="url(#paint36_radial_54633_139)"/>
<path d="M25.5405 18.2719C25.6637 16.9471 24.4126 15.6223 22.6023 14.9661C24.1472 13.5919 24.9908 11.809 24.5453 10.6204C24.0998 9.41947 22.498 9.19661 20.7066 9.93947C21.427 7.68614 21.3985 5.59376 20.5265 4.91281C19.7304 4.28138 18.4603 5.01185 17.3323 6.58423C17.0196 4.47947 16.2423 2.99376 15.3135 2.98138C14.3088 2.94423 13.4463 4.62804 13.124 6.96804C11.9297 5.17281 10.5175 4.29376 9.67391 4.98709C8.79244 5.70519 8.80191 7.88423 9.58861 10.1747C7.74983 9.40709 6.10061 9.65471 5.65513 10.8928C5.22861 12.0938 6.10061 13.8642 7.674 15.2138C5.88261 15.9071 4.65044 17.2442 4.79261 18.569C4.93478 19.8938 6.40391 20.748 8.29009 20.7728C7.07687 22.6299 6.60296 24.6233 7.27591 25.6385C7.94887 26.6538 9.54122 26.3195 11.1241 24.9947C10.8777 27.409 11.3231 29.4271 12.2994 29.7985C13.2851 30.1699 14.4794 28.7585 15.2566 26.5176C16.0623 28.7214 17.266 30.0957 18.2423 29.7119C19.2185 29.328 19.645 27.2852 19.3607 24.8585C20.953 26.1338 22.5359 26.4309 23.1899 25.4157C23.8534 24.388 23.351 22.3823 22.0999 20.5499C23.9671 20.4757 25.4173 19.5966 25.5405 18.2719ZM15.5978 14.5204C15.6831 14.669 15.7874 14.7928 15.9106 14.8919C16.0623 15.0033 16.2234 15.0652 16.4035 15.0899C16.413 15.3128 16.4414 15.5233 16.5172 15.709C16.593 15.9071 16.7068 16.0804 16.849 16.229C16.7637 16.4147 16.7068 16.6128 16.6878 16.8357C16.6689 17.0585 16.6973 17.2814 16.7447 17.5042C16.593 17.6033 16.4603 17.7271 16.3561 17.888C16.2423 18.0614 16.176 18.2719 16.1286 18.4947C15.958 18.4699 15.7969 18.4823 15.6452 18.5442C15.4841 18.6061 15.3324 18.7299 15.1997 18.8909C15.067 18.7547 14.9249 18.6433 14.7732 18.5814C14.6026 18.5195 14.432 18.5195 14.2614 18.5566C14.214 18.3461 14.1382 18.1604 14.0244 17.9995C13.9107 17.8261 13.7685 17.7023 13.6074 17.6033C13.6548 17.3928 13.6643 17.1823 13.6453 16.9719C13.6169 16.749 13.5505 16.5385 13.4557 16.3404C13.579 16.1919 13.6832 16.0309 13.7496 15.8328C13.8254 15.6099 13.8538 15.3623 13.8443 15.1023C14.0434 15.0776 14.233 15.028 14.3941 14.8919C14.5173 14.7928 14.6216 14.6566 14.7069 14.508C14.849 14.5823 14.9912 14.6319 15.1429 14.6319C15.304 14.6319 15.4557 14.5947 15.5978 14.5204Z" fill="url(#paint37_radial_54633_139)"/>
<path d="M25.5405 18.2719C25.6637 16.9471 24.4126 15.6223 22.6023 14.9661C24.1472 13.5919 24.9908 11.809 24.5453 10.6204C24.0998 9.41947 22.498 9.19661 20.7066 9.93947C21.427 7.68614 21.3985 5.59376 20.5265 4.91281C19.7304 4.28138 18.4603 5.01185 17.3323 6.58423C17.0196 4.47947 16.2423 2.99376 15.3135 2.98138C14.3088 2.94423 13.4463 4.62804 13.124 6.96804C11.9297 5.17281 10.5175 4.29376 9.67391 4.98709C8.79244 5.70519 8.80191 7.88423 9.58861 10.1747C7.74983 9.40709 6.10061 9.65471 5.65513 10.8928C5.22861 12.0938 6.10061 13.8642 7.674 15.2138C5.88261 15.9071 4.65044 17.2442 4.79261 18.569C4.93478 19.8938 6.40391 20.748 8.29009 20.7728C7.07687 22.6299 6.60296 24.6233 7.27591 25.6385C7.94887 26.6538 9.54122 26.3195 11.1241 24.9947C10.8777 27.409 11.3231 29.4271 12.2994 29.7985C13.2851 30.1699 14.4794 28.7585 15.2566 26.5176C16.0623 28.7214 17.266 30.0957 18.2423 29.7119C19.2185 29.328 19.645 27.2852 19.3607 24.8585C20.953 26.1338 22.5359 26.4309 23.1899 25.4157C23.8534 24.388 23.351 22.3823 22.0999 20.5499C23.9671 20.4757 25.4173 19.5966 25.5405 18.2719ZM15.5978 14.5204C15.6831 14.669 15.7874 14.7928 15.9106 14.8919C16.0623 15.0033 16.2234 15.0652 16.4035 15.0899C16.413 15.3128 16.4414 15.5233 16.5172 15.709C16.593 15.9071 16.7068 16.0804 16.849 16.229C16.7637 16.4147 16.7068 16.6128 16.6878 16.8357C16.6689 17.0585 16.6973 17.2814 16.7447 17.5042C16.593 17.6033 16.4603 17.7271 16.3561 17.888C16.2423 18.0614 16.176 18.2719 16.1286 18.4947C15.958 18.4699 15.7969 18.4823 15.6452 18.5442C15.4841 18.6061 15.3324 18.7299 15.1997 18.8909C15.067 18.7547 14.9249 18.6433 14.7732 18.5814C14.6026 18.5195 14.432 18.5195 14.2614 18.5566C14.214 18.3461 14.1382 18.1604 14.0244 17.9995C13.9107 17.8261 13.7685 17.7023 13.6074 17.6033C13.6548 17.3928 13.6643 17.1823 13.6453 16.9719C13.6169 16.749 13.5505 16.5385 13.4557 16.3404C13.579 16.1919 13.6832 16.0309 13.7496 15.8328C13.8254 15.6099 13.8538 15.3623 13.8443 15.1023C14.0434 15.0776 14.233 15.028 14.3941 14.8919C14.5173 14.7928 14.6216 14.6566 14.7069 14.508C14.849 14.5823 14.9912 14.6319 15.1429 14.6319C15.304 14.6319 15.4557 14.5947 15.5978 14.5204Z" fill="url(#paint38_radial_54633_139)"/>
<path d="M25.5405 18.2719C25.6637 16.9471 24.4126 15.6223 22.6023 14.9661C24.1472 13.5919 24.9908 11.809 24.5453 10.6204C24.0998 9.41947 22.498 9.19661 20.7066 9.93947C21.427 7.68614 21.3985 5.59376 20.5265 4.91281C19.7304 4.28138 18.4603 5.01185 17.3323 6.58423C17.0196 4.47947 16.2423 2.99376 15.3135 2.98138C14.3088 2.94423 13.4463 4.62804 13.124 6.96804C11.9297 5.17281 10.5175 4.29376 9.67391 4.98709C8.79244 5.70519 8.80191 7.88423 9.58861 10.1747C7.74983 9.40709 6.10061 9.65471 5.65513 10.8928C5.22861 12.0938 6.10061 13.8642 7.674 15.2138C5.88261 15.9071 4.65044 17.2442 4.79261 18.569C4.93478 19.8938 6.40391 20.748 8.29009 20.7728C7.07687 22.6299 6.60296 24.6233 7.27591 25.6385C7.94887 26.6538 9.54122 26.3195 11.1241 24.9947C10.8777 27.409 11.3231 29.4271 12.2994 29.7985C13.2851 30.1699 14.4794 28.7585 15.2566 26.5176C16.0623 28.7214 17.266 30.0957 18.2423 29.7119C19.2185 29.328 19.645 27.2852 19.3607 24.8585C20.953 26.1338 22.5359 26.4309 23.1899 25.4157C23.8534 24.388 23.351 22.3823 22.0999 20.5499C23.9671 20.4757 25.4173 19.5966 25.5405 18.2719ZM15.5978 14.5204C15.6831 14.669 15.7874 14.7928 15.9106 14.8919C16.0623 15.0033 16.2234 15.0652 16.4035 15.0899C16.413 15.3128 16.4414 15.5233 16.5172 15.709C16.593 15.9071 16.7068 16.0804 16.849 16.229C16.7637 16.4147 16.7068 16.6128 16.6878 16.8357C16.6689 17.0585 16.6973 17.2814 16.7447 17.5042C16.593 17.6033 16.4603 17.7271 16.3561 17.888C16.2423 18.0614 16.176 18.2719 16.1286 18.4947C15.958 18.4699 15.7969 18.4823 15.6452 18.5442C15.4841 18.6061 15.3324 18.7299 15.1997 18.8909C15.067 18.7547 14.9249 18.6433 14.7732 18.5814C14.6026 18.5195 14.432 18.5195 14.2614 18.5566C14.214 18.3461 14.1382 18.1604 14.0244 17.9995C13.9107 17.8261 13.7685 17.7023 13.6074 17.6033C13.6548 17.3928 13.6643 17.1823 13.6453 16.9719C13.6169 16.749 13.5505 16.5385 13.4557 16.3404C13.579 16.1919 13.6832 16.0309 13.7496 15.8328C13.8254 15.6099 13.8538 15.3623 13.8443 15.1023C14.0434 15.0776 14.233 15.028 14.3941 14.8919C14.5173 14.7928 14.6216 14.6566 14.7069 14.508C14.849 14.5823 14.9912 14.6319 15.1429 14.6319C15.304 14.6319 15.4557 14.5947 15.5978 14.5204Z" fill="url(#paint39_radial_54633_139)"/>
<path d="M25.5405 18.2719C25.6637 16.9471 24.4126 15.6223 22.6023 14.9661C24.1472 13.5919 24.9908 11.809 24.5453 10.6204C24.0998 9.41947 22.498 9.19661 20.7066 9.93947C21.427 7.68614 21.3985 5.59376 20.5265 4.91281C19.7304 4.28138 18.4603 5.01185 17.3323 6.58423C17.0196 4.47947 16.2423 2.99376 15.3135 2.98138C14.3088 2.94423 13.4463 4.62804 13.124 6.96804C11.9297 5.17281 10.5175 4.29376 9.67391 4.98709C8.79244 5.70519 8.80191 7.88423 9.58861 10.1747C7.74983 9.40709 6.10061 9.65471 5.65513 10.8928C5.22861 12.0938 6.10061 13.8642 7.674 15.2138C5.88261 15.9071 4.65044 17.2442 4.79261 18.569C4.93478 19.8938 6.40391 20.748 8.29009 20.7728C7.07687 22.6299 6.60296 24.6233 7.27591 25.6385C7.94887 26.6538 9.54122 26.3195 11.1241 24.9947C10.8777 27.409 11.3231 29.4271 12.2994 29.7985C13.2851 30.1699 14.4794 28.7585 15.2566 26.5176C16.0623 28.7214 17.266 30.0957 18.2423 29.7119C19.2185 29.328 19.645 27.2852 19.3607 24.8585C20.953 26.1338 22.5359 26.4309 23.1899 25.4157C23.8534 24.388 23.351 22.3823 22.0999 20.5499C23.9671 20.4757 25.4173 19.5966 25.5405 18.2719ZM15.5978 14.5204C15.6831 14.669 15.7874 14.7928 15.9106 14.8919C16.0623 15.0033 16.2234 15.0652 16.4035 15.0899C16.413 15.3128 16.4414 15.5233 16.5172 15.709C16.593 15.9071 16.7068 16.0804 16.849 16.229C16.7637 16.4147 16.7068 16.6128 16.6878 16.8357C16.6689 17.0585 16.6973 17.2814 16.7447 17.5042C16.593 17.6033 16.4603 17.7271 16.3561 17.888C16.2423 18.0614 16.176 18.2719 16.1286 18.4947C15.958 18.4699 15.7969 18.4823 15.6452 18.5442C15.4841 18.6061 15.3324 18.7299 15.1997 18.8909C15.067 18.7547 14.9249 18.6433 14.7732 18.5814C14.6026 18.5195 14.432 18.5195 14.2614 18.5566C14.214 18.3461 14.1382 18.1604 14.0244 17.9995C13.9107 17.8261 13.7685 17.7023 13.6074 17.6033C13.6548 17.3928 13.6643 17.1823 13.6453 16.9719C13.6169 16.749 13.5505 16.5385 13.4557 16.3404C13.579 16.1919 13.6832 16.0309 13.7496 15.8328C13.8254 15.6099 13.8538 15.3623 13.8443 15.1023C14.0434 15.0776 14.233 15.028 14.3941 14.8919C14.5173 14.7928 14.6216 14.6566 14.7069 14.508C14.849 14.5823 14.9912 14.6319 15.1429 14.6319C15.304 14.6319 15.4557 14.5947 15.5978 14.5204Z" fill="url(#paint40_radial_54633_139)" fill-opacity="0.4"/>
<path d="M25.5405 18.2719C25.6637 16.9471 24.4126 15.6223 22.6023 14.9661C24.1472 13.5919 24.9908 11.809 24.5453 10.6204C24.0998 9.41947 22.498 9.19661 20.7066 9.93947C21.427 7.68614 21.3985 5.59376 20.5265 4.91281C19.7304 4.28138 18.4603 5.01185 17.3323 6.58423C17.0196 4.47947 16.2423 2.99376 15.3135 2.98138C14.3088 2.94423 13.4463 4.62804 13.124 6.96804C11.9297 5.17281 10.5175 4.29376 9.67391 4.98709C8.79244 5.70519 8.80191 7.88423 9.58861 10.1747C7.74983 9.40709 6.10061 9.65471 5.65513 10.8928C5.22861 12.0938 6.10061 13.8642 7.674 15.2138C5.88261 15.9071 4.65044 17.2442 4.79261 18.569C4.93478 19.8938 6.40391 20.748 8.29009 20.7728C7.07687 22.6299 6.60296 24.6233 7.27591 25.6385C7.94887 26.6538 9.54122 26.3195 11.1241 24.9947C10.8777 27.409 11.3231 29.4271 12.2994 29.7985C13.2851 30.1699 14.4794 28.7585 15.2566 26.5176C16.0623 28.7214 17.266 30.0957 18.2423 29.7119C19.2185 29.328 19.645 27.2852 19.3607 24.8585C20.953 26.1338 22.5359 26.4309 23.1899 25.4157C23.8534 24.388 23.351 22.3823 22.0999 20.5499C23.9671 20.4757 25.4173 19.5966 25.5405 18.2719ZM15.5978 14.5204C15.6831 14.669 15.7874 14.7928 15.9106 14.8919C16.0623 15.0033 16.2234 15.0652 16.4035 15.0899C16.413 15.3128 16.4414 15.5233 16.5172 15.709C16.593 15.9071 16.7068 16.0804 16.849 16.229C16.7637 16.4147 16.7068 16.6128 16.6878 16.8357C16.6689 17.0585 16.6973 17.2814 16.7447 17.5042C16.593 17.6033 16.4603 17.7271 16.3561 17.888C16.2423 18.0614 16.176 18.2719 16.1286 18.4947C15.958 18.4699 15.7969 18.4823 15.6452 18.5442C15.4841 18.6061 15.3324 18.7299 15.1997 18.8909C15.067 18.7547 14.9249 18.6433 14.7732 18.5814C14.6026 18.5195 14.432 18.5195 14.2614 18.5566C14.214 18.3461 14.1382 18.1604 14.0244 17.9995C13.9107 17.8261 13.7685 17.7023 13.6074 17.6033C13.6548 17.3928 13.6643 17.1823 13.6453 16.9719C13.6169 16.749 13.5505 16.5385 13.4557 16.3404C13.579 16.1919 13.6832 16.0309 13.7496 15.8328C13.8254 15.6099 13.8538 15.3623 13.8443 15.1023C14.0434 15.0776 14.233 15.028 14.3941 14.8919C14.5173 14.7928 14.6216 14.6566 14.7069 14.508C14.849 14.5823 14.9912 14.6319 15.1429 14.6319C15.304 14.6319 15.4557 14.5947 15.5978 14.5204Z" fill="url(#paint41_radial_54633_139)" fill-opacity="0.7"/>
<path d="M25.5405 18.2719C25.6637 16.9471 24.4126 15.6223 22.6023 14.9661C24.1472 13.5919 24.9908 11.809 24.5453 10.6204C24.0998 9.41947 22.498 9.19661 20.7066 9.93947C21.427 7.68614 21.3985 5.59376 20.5265 4.91281C19.7304 4.28138 18.4603 5.01185 17.3323 6.58423C17.0196 4.47947 16.2423 2.99376 15.3135 2.98138C14.3088 2.94423 13.4463 4.62804 13.124 6.96804C11.9297 5.17281 10.5175 4.29376 9.67391 4.98709C8.79244 5.70519 8.80191 7.88423 9.58861 10.1747C7.74983 9.40709 6.10061 9.65471 5.65513 10.8928C5.22861 12.0938 6.10061 13.8642 7.674 15.2138C5.88261 15.9071 4.65044 17.2442 4.79261 18.569C4.93478 19.8938 6.40391 20.748 8.29009 20.7728C7.07687 22.6299 6.60296 24.6233 7.27591 25.6385C7.94887 26.6538 9.54122 26.3195 11.1241 24.9947C10.8777 27.409 11.3231 29.4271 12.2994 29.7985C13.2851 30.1699 14.4794 28.7585 15.2566 26.5176C16.0623 28.7214 17.266 30.0957 18.2423 29.7119C19.2185 29.328 19.645 27.2852 19.3607 24.8585C20.953 26.1338 22.5359 26.4309 23.1899 25.4157C23.8534 24.388 23.351 22.3823 22.0999 20.5499C23.9671 20.4757 25.4173 19.5966 25.5405 18.2719ZM15.5978 14.5204C15.6831 14.669 15.7874 14.7928 15.9106 14.8919C16.0623 15.0033 16.2234 15.0652 16.4035 15.0899C16.413 15.3128 16.4414 15.5233 16.5172 15.709C16.593 15.9071 16.7068 16.0804 16.849 16.229C16.7637 16.4147 16.7068 16.6128 16.6878 16.8357C16.6689 17.0585 16.6973 17.2814 16.7447 17.5042C16.593 17.6033 16.4603 17.7271 16.3561 17.888C16.2423 18.0614 16.176 18.2719 16.1286 18.4947C15.958 18.4699 15.7969 18.4823 15.6452 18.5442C15.4841 18.6061 15.3324 18.7299 15.1997 18.8909C15.067 18.7547 14.9249 18.6433 14.7732 18.5814C14.6026 18.5195 14.432 18.5195 14.2614 18.5566C14.214 18.3461 14.1382 18.1604 14.0244 17.9995C13.9107 17.8261 13.7685 17.7023 13.6074 17.6033C13.6548 17.3928 13.6643 17.1823 13.6453 16.9719C13.6169 16.749 13.5505 16.5385 13.4557 16.3404C13.579 16.1919 13.6832 16.0309 13.7496 15.8328C13.8254 15.6099 13.8538 15.3623 13.8443 15.1023C14.0434 15.0776 14.233 15.028 14.3941 14.8919C14.5173 14.7928 14.6216 14.6566 14.7069 14.508C14.849 14.5823 14.9912 14.6319 15.1429 14.6319C15.304 14.6319 15.4557 14.5947 15.5978 14.5204Z" fill="url(#paint42_radial_54633_139)" fill-opacity="0.7"/>
<path d="M25.5405 18.2719C25.6637 16.9471 24.4126 15.6223 22.6023 14.9661C24.1472 13.5919 24.9908 11.809 24.5453 10.6204C24.0998 9.41947 22.498 9.19661 20.7066 9.93947C21.427 7.68614 21.3985 5.59376 20.5265 4.91281C19.7304 4.28138 18.4603 5.01185 17.3323 6.58423C17.0196 4.47947 16.2423 2.99376 15.3135 2.98138C14.3088 2.94423 13.4463 4.62804 13.124 6.96804C11.9297 5.17281 10.5175 4.29376 9.67391 4.98709C8.79244 5.70519 8.80191 7.88423 9.58861 10.1747C7.74983 9.40709 6.10061 9.65471 5.65513 10.8928C5.22861 12.0938 6.10061 13.8642 7.674 15.2138C5.88261 15.9071 4.65044 17.2442 4.79261 18.569C4.93478 19.8938 6.40391 20.748 8.29009 20.7728C7.07687 22.6299 6.60296 24.6233 7.27591 25.6385C7.94887 26.6538 9.54122 26.3195 11.1241 24.9947C10.8777 27.409 11.3231 29.4271 12.2994 29.7985C13.2851 30.1699 14.4794 28.7585 15.2566 26.5176C16.0623 28.7214 17.266 30.0957 18.2423 29.7119C19.2185 29.328 19.645 27.2852 19.3607 24.8585C20.953 26.1338 22.5359 26.4309 23.1899 25.4157C23.8534 24.388 23.351 22.3823 22.0999 20.5499C23.9671 20.4757 25.4173 19.5966 25.5405 18.2719ZM15.5978 14.5204C15.6831 14.669 15.7874 14.7928 15.9106 14.8919C16.0623 15.0033 16.2234 15.0652 16.4035 15.0899C16.413 15.3128 16.4414 15.5233 16.5172 15.709C16.593 15.9071 16.7068 16.0804 16.849 16.229C16.7637 16.4147 16.7068 16.6128 16.6878 16.8357C16.6689 17.0585 16.6973 17.2814 16.7447 17.5042C16.593 17.6033 16.4603 17.7271 16.3561 17.888C16.2423 18.0614 16.176 18.2719 16.1286 18.4947C15.958 18.4699 15.7969 18.4823 15.6452 18.5442C15.4841 18.6061 15.3324 18.7299 15.1997 18.8909C15.067 18.7547 14.9249 18.6433 14.7732 18.5814C14.6026 18.5195 14.432 18.5195 14.2614 18.5566C14.214 18.3461 14.1382 18.1604 14.0244 17.9995C13.9107 17.8261 13.7685 17.7023 13.6074 17.6033C13.6548 17.3928 13.6643 17.1823 13.6453 16.9719C13.6169 16.749 13.5505 16.5385 13.4557 16.3404C13.579 16.1919 13.6832 16.0309 13.7496 15.8328C13.8254 15.6099 13.8538 15.3623 13.8443 15.1023C14.0434 15.0776 14.233 15.028 14.3941 14.8919C14.5173 14.7928 14.6216 14.6566 14.7069 14.508C14.849 14.5823 14.9912 14.6319 15.1429 14.6319C15.304 14.6319 15.4557 14.5947 15.5978 14.5204Z" fill="url(#paint43_radial_54633_139)" fill-opacity="0.7"/>
<path d="M25.5405 18.2719C25.6637 16.9471 24.4126 15.6223 22.6023 14.9661C24.1472 13.5919 24.9908 11.809 24.5453 10.6204C24.0998 9.41947 22.498 9.19661 20.7066 9.93947C21.427 7.68614 21.3985 5.59376 20.5265 4.91281C19.7304 4.28138 18.4603 5.01185 17.3323 6.58423C17.0196 4.47947 16.2423 2.99376 15.3135 2.98138C14.3088 2.94423 13.4463 4.62804 13.124 6.96804C11.9297 5.17281 10.5175 4.29376 9.67391 4.98709C8.79244 5.70519 8.80191 7.88423 9.58861 10.1747C7.74983 9.40709 6.10061 9.65471 5.65513 10.8928C5.22861 12.0938 6.10061 13.8642 7.674 15.2138C5.88261 15.9071 4.65044 17.2442 4.79261 18.569C4.93478 19.8938 6.40391 20.748 8.29009 20.7728C7.07687 22.6299 6.60296 24.6233 7.27591 25.6385C7.94887 26.6538 9.54122 26.3195 11.1241 24.9947C10.8777 27.409 11.3231 29.4271 12.2994 29.7985C13.2851 30.1699 14.4794 28.7585 15.2566 26.5176C16.0623 28.7214 17.266 30.0957 18.2423 29.7119C19.2185 29.328 19.645 27.2852 19.3607 24.8585C20.953 26.1338 22.5359 26.4309 23.1899 25.4157C23.8534 24.388 23.351 22.3823 22.0999 20.5499C23.9671 20.4757 25.4173 19.5966 25.5405 18.2719ZM15.5978 14.5204C15.6831 14.669 15.7874 14.7928 15.9106 14.8919C16.0623 15.0033 16.2234 15.0652 16.4035 15.0899C16.413 15.3128 16.4414 15.5233 16.5172 15.709C16.593 15.9071 16.7068 16.0804 16.849 16.229C16.7637 16.4147 16.7068 16.6128 16.6878 16.8357C16.6689 17.0585 16.6973 17.2814 16.7447 17.5042C16.593 17.6033 16.4603 17.7271 16.3561 17.888C16.2423 18.0614 16.176 18.2719 16.1286 18.4947C15.958 18.4699 15.7969 18.4823 15.6452 18.5442C15.4841 18.6061 15.3324 18.7299 15.1997 18.8909C15.067 18.7547 14.9249 18.6433 14.7732 18.5814C14.6026 18.5195 14.432 18.5195 14.2614 18.5566C14.214 18.3461 14.1382 18.1604 14.0244 17.9995C13.9107 17.8261 13.7685 17.7023 13.6074 17.6033C13.6548 17.3928 13.6643 17.1823 13.6453 16.9719C13.6169 16.749 13.5505 16.5385 13.4557 16.3404C13.579 16.1919 13.6832 16.0309 13.7496 15.8328C13.8254 15.6099 13.8538 15.3623 13.8443 15.1023C14.0434 15.0776 14.233 15.028 14.3941 14.8919C14.5173 14.7928 14.6216 14.6566 14.7069 14.508C14.849 14.5823 14.9912 14.6319 15.1429 14.6319C15.304 14.6319 15.4557 14.5947 15.5978 14.5204Z" fill="url(#paint44_radial_54633_139)" fill-opacity="0.7"/>
<path d="M25.5405 18.2719C25.6637 16.9471 24.4126 15.6223 22.6023 14.9661C24.1472 13.5919 24.9908 11.809 24.5453 10.6204C24.0998 9.41947 22.498 9.19661 20.7066 9.93947C21.427 7.68614 21.3985 5.59376 20.5265 4.91281C19.7304 4.28138 18.4603 5.01185 17.3323 6.58423C17.0196 4.47947 16.2423 2.99376 15.3135 2.98138C14.3088 2.94423 13.4463 4.62804 13.124 6.96804C11.9297 5.17281 10.5175 4.29376 9.67391 4.98709C8.79244 5.70519 8.80191 7.88423 9.58861 10.1747C7.74983 9.40709 6.10061 9.65471 5.65513 10.8928C5.22861 12.0938 6.10061 13.8642 7.674 15.2138C5.88261 15.9071 4.65044 17.2442 4.79261 18.569C4.93478 19.8938 6.40391 20.748 8.29009 20.7728C7.07687 22.6299 6.60296 24.6233 7.27591 25.6385C7.94887 26.6538 9.54122 26.3195 11.1241 24.9947C10.8777 27.409 11.3231 29.4271 12.2994 29.7985C13.2851 30.1699 14.4794 28.7585 15.2566 26.5176C16.0623 28.7214 17.266 30.0957 18.2423 29.7119C19.2185 29.328 19.645 27.2852 19.3607 24.8585C20.953 26.1338 22.5359 26.4309 23.1899 25.4157C23.8534 24.388 23.351 22.3823 22.0999 20.5499C23.9671 20.4757 25.4173 19.5966 25.5405 18.2719ZM15.5978 14.5204C15.6831 14.669 15.7874 14.7928 15.9106 14.8919C16.0623 15.0033 16.2234 15.0652 16.4035 15.0899C16.413 15.3128 16.4414 15.5233 16.5172 15.709C16.593 15.9071 16.7068 16.0804 16.849 16.229C16.7637 16.4147 16.7068 16.6128 16.6878 16.8357C16.6689 17.0585 16.6973 17.2814 16.7447 17.5042C16.593 17.6033 16.4603 17.7271 16.3561 17.888C16.2423 18.0614 16.176 18.2719 16.1286 18.4947C15.958 18.4699 15.7969 18.4823 15.6452 18.5442C15.4841 18.6061 15.3324 18.7299 15.1997 18.8909C15.067 18.7547 14.9249 18.6433 14.7732 18.5814C14.6026 18.5195 14.432 18.5195 14.2614 18.5566C14.214 18.3461 14.1382 18.1604 14.0244 17.9995C13.9107 17.8261 13.7685 17.7023 13.6074 17.6033C13.6548 17.3928 13.6643 17.1823 13.6453 16.9719C13.6169 16.749 13.5505 16.5385 13.4557 16.3404C13.579 16.1919 13.6832 16.0309 13.7496 15.8328C13.8254 15.6099 13.8538 15.3623 13.8443 15.1023C14.0434 15.0776 14.233 15.028 14.3941 14.8919C14.5173 14.7928 14.6216 14.6566 14.7069 14.508C14.849 14.5823 14.9912 14.6319 15.1429 14.6319C15.304 14.6319 15.4557 14.5947 15.5978 14.5204Z" fill="url(#paint45_radial_54633_139)" fill-opacity="0.7"/>
<path d="M25.5405 18.2719C25.6637 16.9471 24.4126 15.6223 22.6023 14.9661C24.1472 13.5919 24.9908 11.809 24.5453 10.6204C24.0998 9.41947 22.498 9.19661 20.7066 9.93947C21.427 7.68614 21.3985 5.59376 20.5265 4.91281C19.7304 4.28138 18.4603 5.01185 17.3323 6.58423C17.0196 4.47947 16.2423 2.99376 15.3135 2.98138C14.3088 2.94423 13.4463 4.62804 13.124 6.96804C11.9297 5.17281 10.5175 4.29376 9.67391 4.98709C8.79244 5.70519 8.80191 7.88423 9.58861 10.1747C7.74983 9.40709 6.10061 9.65471 5.65513 10.8928C5.22861 12.0938 6.10061 13.8642 7.674 15.2138C5.88261 15.9071 4.65044 17.2442 4.79261 18.569C4.93478 19.8938 6.40391 20.748 8.29009 20.7728C7.07687 22.6299 6.60296 24.6233 7.27591 25.6385C7.94887 26.6538 9.54122 26.3195 11.1241 24.9947C10.8777 27.409 11.3231 29.4271 12.2994 29.7985C13.2851 30.1699 14.4794 28.7585 15.2566 26.5176C16.0623 28.7214 17.266 30.0957 18.2423 29.7119C19.2185 29.328 19.645 27.2852 19.3607 24.8585C20.953 26.1338 22.5359 26.4309 23.1899 25.4157C23.8534 24.388 23.351 22.3823 22.0999 20.5499C23.9671 20.4757 25.4173 19.5966 25.5405 18.2719ZM15.5978 14.5204C15.6831 14.669 15.7874 14.7928 15.9106 14.8919C16.0623 15.0033 16.2234 15.0652 16.4035 15.0899C16.413 15.3128 16.4414 15.5233 16.5172 15.709C16.593 15.9071 16.7068 16.0804 16.849 16.229C16.7637 16.4147 16.7068 16.6128 16.6878 16.8357C16.6689 17.0585 16.6973 17.2814 16.7447 17.5042C16.593 17.6033 16.4603 17.7271 16.3561 17.888C16.2423 18.0614 16.176 18.2719 16.1286 18.4947C15.958 18.4699 15.7969 18.4823 15.6452 18.5442C15.4841 18.6061 15.3324 18.7299 15.1997 18.8909C15.067 18.7547 14.9249 18.6433 14.7732 18.5814C14.6026 18.5195 14.432 18.5195 14.2614 18.5566C14.214 18.3461 14.1382 18.1604 14.0244 17.9995C13.9107 17.8261 13.7685 17.7023 13.6074 17.6033C13.6548 17.3928 13.6643 17.1823 13.6453 16.9719C13.6169 16.749 13.5505 16.5385 13.4557 16.3404C13.579 16.1919 13.6832 16.0309 13.7496 15.8328C13.8254 15.6099 13.8538 15.3623 13.8443 15.1023C14.0434 15.0776 14.233 15.028 14.3941 14.8919C14.5173 14.7928 14.6216 14.6566 14.7069 14.508C14.849 14.5823 14.9912 14.6319 15.1429 14.6319C15.304 14.6319 15.4557 14.5947 15.5978 14.5204Z" fill="url(#paint46_radial_54633_139)" fill-opacity="0.7"/>
<path d="M25.5405 18.2719C25.6637 16.9471 24.4126 15.6223 22.6023 14.9661C24.1472 13.5919 24.9908 11.809 24.5453 10.6204C24.0998 9.41947 22.498 9.19661 20.7066 9.93947C21.427 7.68614 21.3985 5.59376 20.5265 4.91281C19.7304 4.28138 18.4603 5.01185 17.3323 6.58423C17.0196 4.47947 16.2423 2.99376 15.3135 2.98138C14.3088 2.94423 13.4463 4.62804 13.124 6.96804C11.9297 5.17281 10.5175 4.29376 9.67391 4.98709C8.79244 5.70519 8.80191 7.88423 9.58861 10.1747C7.74983 9.40709 6.10061 9.65471 5.65513 10.8928C5.22861 12.0938 6.10061 13.8642 7.674 15.2138C5.88261 15.9071 4.65044 17.2442 4.79261 18.569C4.93478 19.8938 6.40391 20.748 8.29009 20.7728C7.07687 22.6299 6.60296 24.6233 7.27591 25.6385C7.94887 26.6538 9.54122 26.3195 11.1241 24.9947C10.8777 27.409 11.3231 29.4271 12.2994 29.7985C13.2851 30.1699 14.4794 28.7585 15.2566 26.5176C16.0623 28.7214 17.266 30.0957 18.2423 29.7119C19.2185 29.328 19.645 27.2852 19.3607 24.8585C20.953 26.1338 22.5359 26.4309 23.1899 25.4157C23.8534 24.388 23.351 22.3823 22.0999 20.5499C23.9671 20.4757 25.4173 19.5966 25.5405 18.2719ZM15.5978 14.5204C15.6831 14.669 15.7874 14.7928 15.9106 14.8919C16.0623 15.0033 16.2234 15.0652 16.4035 15.0899C16.413 15.3128 16.4414 15.5233 16.5172 15.709C16.593 15.9071 16.7068 16.0804 16.849 16.229C16.7637 16.4147 16.7068 16.6128 16.6878 16.8357C16.6689 17.0585 16.6973 17.2814 16.7447 17.5042C16.593 17.6033 16.4603 17.7271 16.3561 17.888C16.2423 18.0614 16.176 18.2719 16.1286 18.4947C15.958 18.4699 15.7969 18.4823 15.6452 18.5442C15.4841 18.6061 15.3324 18.7299 15.1997 18.8909C15.067 18.7547 14.9249 18.6433 14.7732 18.5814C14.6026 18.5195 14.432 18.5195 14.2614 18.5566C14.214 18.3461 14.1382 18.1604 14.0244 17.9995C13.9107 17.8261 13.7685 17.7023 13.6074 17.6033C13.6548 17.3928 13.6643 17.1823 13.6453 16.9719C13.6169 16.749 13.5505 16.5385 13.4557 16.3404C13.579 16.1919 13.6832 16.0309 13.7496 15.8328C13.8254 15.6099 13.8538 15.3623 13.8443 15.1023C14.0434 15.0776 14.233 15.028 14.3941 14.8919C14.5173 14.7928 14.6216 14.6566 14.7069 14.508C14.849 14.5823 14.9912 14.6319 15.1429 14.6319C15.304 14.6319 15.4557 14.5947 15.5978 14.5204Z" fill="url(#paint47_radial_54633_139)" fill-opacity="0.7"/>
<path d="M25.5405 18.2719C25.6637 16.9471 24.4126 15.6223 22.6023 14.9661C24.1472 13.5919 24.9908 11.809 24.5453 10.6204C24.0998 9.41947 22.498 9.19661 20.7066 9.93947C21.427 7.68614 21.3985 5.59376 20.5265 4.91281C19.7304 4.28138 18.4603 5.01185 17.3323 6.58423C17.0196 4.47947 16.2423 2.99376 15.3135 2.98138C14.3088 2.94423 13.4463 4.62804 13.124 6.96804C11.9297 5.17281 10.5175 4.29376 9.67391 4.98709C8.79244 5.70519 8.80191 7.88423 9.58861 10.1747C7.74983 9.40709 6.10061 9.65471 5.65513 10.8928C5.22861 12.0938 6.10061 13.8642 7.674 15.2138C5.88261 15.9071 4.65044 17.2442 4.79261 18.569C4.93478 19.8938 6.40391 20.748 8.29009 20.7728C7.07687 22.6299 6.60296 24.6233 7.27591 25.6385C7.94887 26.6538 9.54122 26.3195 11.1241 24.9947C10.8777 27.409 11.3231 29.4271 12.2994 29.7985C13.2851 30.1699 14.4794 28.7585 15.2566 26.5176C16.0623 28.7214 17.266 30.0957 18.2423 29.7119C19.2185 29.328 19.645 27.2852 19.3607 24.8585C20.953 26.1338 22.5359 26.4309 23.1899 25.4157C23.8534 24.388 23.351 22.3823 22.0999 20.5499C23.9671 20.4757 25.4173 19.5966 25.5405 18.2719ZM15.5978 14.5204C15.6831 14.669 15.7874 14.7928 15.9106 14.8919C16.0623 15.0033 16.2234 15.0652 16.4035 15.0899C16.413 15.3128 16.4414 15.5233 16.5172 15.709C16.593 15.9071 16.7068 16.0804 16.849 16.229C16.7637 16.4147 16.7068 16.6128 16.6878 16.8357C16.6689 17.0585 16.6973 17.2814 16.7447 17.5042C16.593 17.6033 16.4603 17.7271 16.3561 17.888C16.2423 18.0614 16.176 18.2719 16.1286 18.4947C15.958 18.4699 15.7969 18.4823 15.6452 18.5442C15.4841 18.6061 15.3324 18.7299 15.1997 18.8909C15.067 18.7547 14.9249 18.6433 14.7732 18.5814C14.6026 18.5195 14.432 18.5195 14.2614 18.5566C14.214 18.3461 14.1382 18.1604 14.0244 17.9995C13.9107 17.8261 13.7685 17.7023 13.6074 17.6033C13.6548 17.3928 13.6643 17.1823 13.6453 16.9719C13.6169 16.749 13.5505 16.5385 13.4557 16.3404C13.579 16.1919 13.6832 16.0309 13.7496 15.8328C13.8254 15.6099 13.8538 15.3623 13.8443 15.1023C14.0434 15.0776 14.233 15.028 14.3941 14.8919C14.5173 14.7928 14.6216 14.6566 14.7069 14.508C14.849 14.5823 14.9912 14.6319 15.1429 14.6319C15.304 14.6319 15.4557 14.5947 15.5978 14.5204Z" fill="url(#paint48_radial_54633_139)" fill-opacity="0.7"/>
<path d="M25.5405 18.2719C25.6637 16.9471 24.4126 15.6223 22.6023 14.9661C24.1472 13.5919 24.9908 11.809 24.5453 10.6204C24.0998 9.41947 22.498 9.19661 20.7066 9.93947C21.427 7.68614 21.3985 5.59376 20.5265 4.91281C19.7304 4.28138 18.4603 5.01185 17.3323 6.58423C17.0196 4.47947 16.2423 2.99376 15.3135 2.98138C14.3088 2.94423 13.4463 4.62804 13.124 6.96804C11.9297 5.17281 10.5175 4.29376 9.67391 4.98709C8.79244 5.70519 8.80191 7.88423 9.58861 10.1747C7.74983 9.40709 6.10061 9.65471 5.65513 10.8928C5.22861 12.0938 6.10061 13.8642 7.674 15.2138C5.88261 15.9071 4.65044 17.2442 4.79261 18.569C4.93478 19.8938 6.40391 20.748 8.29009 20.7728C7.07687 22.6299 6.60296 24.6233 7.27591 25.6385C7.94887 26.6538 9.54122 26.3195 11.1241 24.9947C10.8777 27.409 11.3231 29.4271 12.2994 29.7985C13.2851 30.1699 14.4794 28.7585 15.2566 26.5176C16.0623 28.7214 17.266 30.0957 18.2423 29.7119C19.2185 29.328 19.645 27.2852 19.3607 24.8585C20.953 26.1338 22.5359 26.4309 23.1899 25.4157C23.8534 24.388 23.351 22.3823 22.0999 20.5499C23.9671 20.4757 25.4173 19.5966 25.5405 18.2719ZM15.5978 14.5204C15.6831 14.669 15.7874 14.7928 15.9106 14.8919C16.0623 15.0033 16.2234 15.0652 16.4035 15.0899C16.413 15.3128 16.4414 15.5233 16.5172 15.709C16.593 15.9071 16.7068 16.0804 16.849 16.229C16.7637 16.4147 16.7068 16.6128 16.6878 16.8357C16.6689 17.0585 16.6973 17.2814 16.7447 17.5042C16.593 17.6033 16.4603 17.7271 16.3561 17.888C16.2423 18.0614 16.176 18.2719 16.1286 18.4947C15.958 18.4699 15.7969 18.4823 15.6452 18.5442C15.4841 18.6061 15.3324 18.7299 15.1997 18.8909C15.067 18.7547 14.9249 18.6433 14.7732 18.5814C14.6026 18.5195 14.432 18.5195 14.2614 18.5566C14.214 18.3461 14.1382 18.1604 14.0244 17.9995C13.9107 17.8261 13.7685 17.7023 13.6074 17.6033C13.6548 17.3928 13.6643 17.1823 13.6453 16.9719C13.6169 16.749 13.5505 16.5385 13.4557 16.3404C13.579 16.1919 13.6832 16.0309 13.7496 15.8328C13.8254 15.6099 13.8538 15.3623 13.8443 15.1023C14.0434 15.0776 14.233 15.028 14.3941 14.8919C14.5173 14.7928 14.6216 14.6566 14.7069 14.508C14.849 14.5823 14.9912 14.6319 15.1429 14.6319C15.304 14.6319 15.4557 14.5947 15.5978 14.5204Z" fill="url(#paint49_radial_54633_139)" fill-opacity="0.7"/>
<path d="M25.5405 18.2719C25.6637 16.9471 24.4126 15.6223 22.6023 14.9661C24.1472 13.5919 24.9908 11.809 24.5453 10.6204C24.0998 9.41947 22.498 9.19661 20.7066 9.93947C21.427 7.68614 21.3985 5.59376 20.5265 4.91281C19.7304 4.28138 18.4603 5.01185 17.3323 6.58423C17.0196 4.47947 16.2423 2.99376 15.3135 2.98138C14.3088 2.94423 13.4463 4.62804 13.124 6.96804C11.9297 5.17281 10.5175 4.29376 9.67391 4.98709C8.79244 5.70519 8.80191 7.88423 9.58861 10.1747C7.74983 9.40709 6.10061 9.65471 5.65513 10.8928C5.22861 12.0938 6.10061 13.8642 7.674 15.2138C5.88261 15.9071 4.65044 17.2442 4.79261 18.569C4.93478 19.8938 6.40391 20.748 8.29009 20.7728C7.07687 22.6299 6.60296 24.6233 7.27591 25.6385C7.94887 26.6538 9.54122 26.3195 11.1241 24.9947C10.8777 27.409 11.3231 29.4271 12.2994 29.7985C13.2851 30.1699 14.4794 28.7585 15.2566 26.5176C16.0623 28.7214 17.266 30.0957 18.2423 29.7119C19.2185 29.328 19.645 27.2852 19.3607 24.8585C20.953 26.1338 22.5359 26.4309 23.1899 25.4157C23.8534 24.388 23.351 22.3823 22.0999 20.5499C23.9671 20.4757 25.4173 19.5966 25.5405 18.2719ZM15.5978 14.5204C15.6831 14.669 15.7874 14.7928 15.9106 14.8919C16.0623 15.0033 16.2234 15.0652 16.4035 15.0899C16.413 15.3128 16.4414 15.5233 16.5172 15.709C16.593 15.9071 16.7068 16.0804 16.849 16.229C16.7637 16.4147 16.7068 16.6128 16.6878 16.8357C16.6689 17.0585 16.6973 17.2814 16.7447 17.5042C16.593 17.6033 16.4603 17.7271 16.3561 17.888C16.2423 18.0614 16.176 18.2719 16.1286 18.4947C15.958 18.4699 15.7969 18.4823 15.6452 18.5442C15.4841 18.6061 15.3324 18.7299 15.1997 18.8909C15.067 18.7547 14.9249 18.6433 14.7732 18.5814C14.6026 18.5195 14.432 18.5195 14.2614 18.5566C14.214 18.3461 14.1382 18.1604 14.0244 17.9995C13.9107 17.8261 13.7685 17.7023 13.6074 17.6033C13.6548 17.3928 13.6643 17.1823 13.6453 16.9719C13.6169 16.749 13.5505 16.5385 13.4557 16.3404C13.579 16.1919 13.6832 16.0309 13.7496 15.8328C13.8254 15.6099 13.8538 15.3623 13.8443 15.1023C14.0434 15.0776 14.233 15.028 14.3941 14.8919C14.5173 14.7928 14.6216 14.6566 14.7069 14.508C14.849 14.5823 14.9912 14.6319 15.1429 14.6319C15.304 14.6319 15.4557 14.5947 15.5978 14.5204Z" fill="url(#paint50_radial_54633_139)" fill-opacity="0.7"/>
<path d="M25.5405 18.2719C25.6637 16.9471 24.4126 15.6223 22.6023 14.9661C24.1472 13.5919 24.9908 11.809 24.5453 10.6204C24.0998 9.41947 22.498 9.19661 20.7066 9.93947C21.427 7.68614 21.3985 5.59376 20.5265 4.91281C19.7304 4.28138 18.4603 5.01185 17.3323 6.58423C17.0196 4.47947 16.2423 2.99376 15.3135 2.98138C14.3088 2.94423 13.4463 4.62804 13.124 6.96804C11.9297 5.17281 10.5175 4.29376 9.67391 4.98709C8.79244 5.70519 8.80191 7.88423 9.58861 10.1747C7.74983 9.40709 6.10061 9.65471 5.65513 10.8928C5.22861 12.0938 6.10061 13.8642 7.674 15.2138C5.88261 15.9071 4.65044 17.2442 4.79261 18.569C4.93478 19.8938 6.40391 20.748 8.29009 20.7728C7.07687 22.6299 6.60296 24.6233 7.27591 25.6385C7.94887 26.6538 9.54122 26.3195 11.1241 24.9947C10.8777 27.409 11.3231 29.4271 12.2994 29.7985C13.2851 30.1699 14.4794 28.7585 15.2566 26.5176C16.0623 28.7214 17.266 30.0957 18.2423 29.7119C19.2185 29.328 19.645 27.2852 19.3607 24.8585C20.953 26.1338 22.5359 26.4309 23.1899 25.4157C23.8534 24.388 23.351 22.3823 22.0999 20.5499C23.9671 20.4757 25.4173 19.5966 25.5405 18.2719ZM15.5978 14.5204C15.6831 14.669 15.7874 14.7928 15.9106 14.8919C16.0623 15.0033 16.2234 15.0652 16.4035 15.0899C16.413 15.3128 16.4414 15.5233 16.5172 15.709C16.593 15.9071 16.7068 16.0804 16.849 16.229C16.7637 16.4147 16.7068 16.6128 16.6878 16.8357C16.6689 17.0585 16.6973 17.2814 16.7447 17.5042C16.593 17.6033 16.4603 17.7271 16.3561 17.888C16.2423 18.0614 16.176 18.2719 16.1286 18.4947C15.958 18.4699 15.7969 18.4823 15.6452 18.5442C15.4841 18.6061 15.3324 18.7299 15.1997 18.8909C15.067 18.7547 14.9249 18.6433 14.7732 18.5814C14.6026 18.5195 14.432 18.5195 14.2614 18.5566C14.214 18.3461 14.1382 18.1604 14.0244 17.9995C13.9107 17.8261 13.7685 17.7023 13.6074 17.6033C13.6548 17.3928 13.6643 17.1823 13.6453 16.9719C13.6169 16.749 13.5505 16.5385 13.4557 16.3404C13.579 16.1919 13.6832 16.0309 13.7496 15.8328C13.8254 15.6099 13.8538 15.3623 13.8443 15.1023C14.0434 15.0776 14.233 15.028 14.3941 14.8919C14.5173 14.7928 14.6216 14.6566 14.7069 14.508C14.849 14.5823 14.9912 14.6319 15.1429 14.6319C15.304 14.6319 15.4557 14.5947 15.5978 14.5204Z" fill="url(#paint51_radial_54633_139)" fill-opacity="0.7"/>
<path d="M25.5405 18.2719C25.6637 16.9471 24.4126 15.6223 22.6023 14.9661C24.1472 13.5919 24.9908 11.809 24.5453 10.6204C24.0998 9.41947 22.498 9.19661 20.7066 9.93947C21.427 7.68614 21.3985 5.59376 20.5265 4.91281C19.7304 4.28138 18.4603 5.01185 17.3323 6.58423C17.0196 4.47947 16.2423 2.99376 15.3135 2.98138C14.3088 2.94423 13.4463 4.62804 13.124 6.96804C11.9297 5.17281 10.5175 4.29376 9.67391 4.98709C8.79244 5.70519 8.80191 7.88423 9.58861 10.1747C7.74983 9.40709 6.10061 9.65471 5.65513 10.8928C5.22861 12.0938 6.10061 13.8642 7.674 15.2138C5.88261 15.9071 4.65044 17.2442 4.79261 18.569C4.93478 19.8938 6.40391 20.748 8.29009 20.7728C7.07687 22.6299 6.60296 24.6233 7.27591 25.6385C7.94887 26.6538 9.54122 26.3195 11.1241 24.9947C10.8777 27.409 11.3231 29.4271 12.2994 29.7985C13.2851 30.1699 14.4794 28.7585 15.2566 26.5176C16.0623 28.7214 17.266 30.0957 18.2423 29.7119C19.2185 29.328 19.645 27.2852 19.3607 24.8585C20.953 26.1338 22.5359 26.4309 23.1899 25.4157C23.8534 24.388 23.351 22.3823 22.0999 20.5499C23.9671 20.4757 25.4173 19.5966 25.5405 18.2719ZM15.5978 14.5204C15.6831 14.669 15.7874 14.7928 15.9106 14.8919C16.0623 15.0033 16.2234 15.0652 16.4035 15.0899C16.413 15.3128 16.4414 15.5233 16.5172 15.709C16.593 15.9071 16.7068 16.0804 16.849 16.229C16.7637 16.4147 16.7068 16.6128 16.6878 16.8357C16.6689 17.0585 16.6973 17.2814 16.7447 17.5042C16.593 17.6033 16.4603 17.7271 16.3561 17.888C16.2423 18.0614 16.176 18.2719 16.1286 18.4947C15.958 18.4699 15.7969 18.4823 15.6452 18.5442C15.4841 18.6061 15.3324 18.7299 15.1997 18.8909C15.067 18.7547 14.9249 18.6433 14.7732 18.5814C14.6026 18.5195 14.432 18.5195 14.2614 18.5566C14.214 18.3461 14.1382 18.1604 14.0244 17.9995C13.9107 17.8261 13.7685 17.7023 13.6074 17.6033C13.6548 17.3928 13.6643 17.1823 13.6453 16.9719C13.6169 16.749 13.5505 16.5385 13.4557 16.3404C13.579 16.1919 13.6832 16.0309 13.7496 15.8328C13.8254 15.6099 13.8538 15.3623 13.8443 15.1023C14.0434 15.0776 14.233 15.028 14.3941 14.8919C14.5173 14.7928 14.6216 14.6566 14.7069 14.508C14.849 14.5823 14.9912 14.6319 15.1429 14.6319C15.304 14.6319 15.4557 14.5947 15.5978 14.5204Z" fill="url(#paint52_radial_54633_139)" fill-opacity="0.7"/>
<path d="M25.5405 18.2719C25.6637 16.9471 24.4126 15.6223 22.6023 14.9661C24.1472 13.5919 24.9908 11.809 24.5453 10.6204C24.0998 9.41947 22.498 9.19661 20.7066 9.93947C21.427 7.68614 21.3985 5.59376 20.5265 4.91281C19.7304 4.28138 18.4603 5.01185 17.3323 6.58423C17.0196 4.47947 16.2423 2.99376 15.3135 2.98138C14.3088 2.94423 13.4463 4.62804 13.124 6.96804C11.9297 5.17281 10.5175 4.29376 9.67391 4.98709C8.79244 5.70519 8.80191 7.88423 9.58861 10.1747C7.74983 9.40709 6.10061 9.65471 5.65513 10.8928C5.22861 12.0938 6.10061 13.8642 7.674 15.2138C5.88261 15.9071 4.65044 17.2442 4.79261 18.569C4.93478 19.8938 6.40391 20.748 8.29009 20.7728C7.07687 22.6299 6.60296 24.6233 7.27591 25.6385C7.94887 26.6538 9.54122 26.3195 11.1241 24.9947C10.8777 27.409 11.3231 29.4271 12.2994 29.7985C13.2851 30.1699 14.4794 28.7585 15.2566 26.5176C16.0623 28.7214 17.266 30.0957 18.2423 29.7119C19.2185 29.328 19.645 27.2852 19.3607 24.8585C20.953 26.1338 22.5359 26.4309 23.1899 25.4157C23.8534 24.388 23.351 22.3823 22.0999 20.5499C23.9671 20.4757 25.4173 19.5966 25.5405 18.2719ZM15.5978 14.5204C15.6831 14.669 15.7874 14.7928 15.9106 14.8919C16.0623 15.0033 16.2234 15.0652 16.4035 15.0899C16.413 15.3128 16.4414 15.5233 16.5172 15.709C16.593 15.9071 16.7068 16.0804 16.849 16.229C16.7637 16.4147 16.7068 16.6128 16.6878 16.8357C16.6689 17.0585 16.6973 17.2814 16.7447 17.5042C16.593 17.6033 16.4603 17.7271 16.3561 17.888C16.2423 18.0614 16.176 18.2719 16.1286 18.4947C15.958 18.4699 15.7969 18.4823 15.6452 18.5442C15.4841 18.6061 15.3324 18.7299 15.1997 18.8909C15.067 18.7547 14.9249 18.6433 14.7732 18.5814C14.6026 18.5195 14.432 18.5195 14.2614 18.5566C14.214 18.3461 14.1382 18.1604 14.0244 17.9995C13.9107 17.8261 13.7685 17.7023 13.6074 17.6033C13.6548 17.3928 13.6643 17.1823 13.6453 16.9719C13.6169 16.749 13.5505 16.5385 13.4557 16.3404C13.579 16.1919 13.6832 16.0309 13.7496 15.8328C13.8254 15.6099 13.8538 15.3623 13.8443 15.1023C14.0434 15.0776 14.233 15.028 14.3941 14.8919C14.5173 14.7928 14.6216 14.6566 14.7069 14.508C14.849 14.5823 14.9912 14.6319 15.1429 14.6319C15.304 14.6319 15.4557 14.5947 15.5978 14.5204Z" fill="url(#paint53_radial_54633_139)" fill-opacity="0.7"/>
<path d="M15.1653 23.9048C18.2334 23.9048 20.7205 20.656 20.7205 16.6483C20.7205 12.6407 18.2334 9.39191 15.1653 9.39191C12.0973 9.39191 9.61017 12.6407 9.61017 16.6483C9.61017 20.656 12.0973 23.9048 15.1653 23.9048Z" fill="url(#paint54_radial_54633_139)"/>
<path fill-rule="evenodd" clip-rule="evenodd" d="M12.843 10.0545L13.4743 10.8791L14.395 9.67642L14.2519 9.48953C14.5491 9.42531 14.8542 9.39191 15.1653 9.39191C15.5364 9.39191 15.8989 9.43942 16.2496 9.53005L16.1375 9.67642L17.0583 10.8791L17.6243 10.1397C18.0039 10.3849 18.359 10.6851 18.6835 11.0323L17.9295 12.0172L18.8354 13.2005L19.575 12.2345C19.8321 12.6721 20.0519 13.1491 20.2282 13.6574L19.7067 14.3386L20.6422 15.5606L20.6564 15.5421C20.6986 15.9028 20.7205 16.2722 20.7205 16.6483C20.7205 17.0547 20.6949 17.4533 20.6458 17.8415L20.6422 17.8368L19.7215 19.0395L20.2133 19.6819C20.0348 20.1878 19.8131 20.6623 19.5543 21.0973L18.8502 20.1776L17.9443 21.3609L18.6573 22.2922C18.3308 22.6373 17.9738 22.935 17.5924 23.1774L17.0731 22.499L16.1375 23.7211L16.1848 23.7828C15.8543 23.8629 15.5136 23.9048 15.1653 23.9048C14.8774 23.9048 14.5946 23.8762 14.3185 23.821L14.395 23.7211L13.4595 22.499L12.8756 23.2617C12.4865 23.0314 12.1213 22.7443 11.7863 22.4084L12.5882 21.3609L11.6823 20.1776L10.866 21.2439C10.6002 20.8201 10.3704 20.3562 10.1826 19.8603L10.811 19.0395L9.89032 17.8368L9.71593 18.0646C9.64654 17.6066 9.61017 17.133 9.61017 16.6483C9.61017 16.1934 9.64221 15.7483 9.70351 15.3166L9.89032 15.5606L10.8258 14.3386L10.167 13.478C10.3525 12.9798 10.5805 12.5134 10.8447 12.087L11.6971 13.2005L12.603 12.0172L11.7595 10.9153C12.0925 10.5773 12.4557 10.2876 12.843 10.0545ZM16.2018 21.3609L15.2663 22.583L14.3308 21.3609L15.2663 20.1389L16.2018 21.3609ZM17.979 19.0395L17.0731 20.2228L16.1375 19.0008L17.0434 17.8175L17.979 19.0395ZM19.7709 16.6987L18.8502 17.9014L17.9147 16.6794L18.8354 15.4767L19.7709 16.6987ZM13.4595 20.2228L14.395 19.0008L13.4891 17.8175L12.5536 19.0395L13.4595 20.2228ZM11.6823 17.9014L12.6178 16.6794L11.6971 15.4767L10.7616 16.6987L11.6823 17.9014ZM16.1722 16.6794L15.2663 17.8627L14.3604 16.6794L15.2663 15.4961L16.1722 16.6794ZM17.9641 14.3386L17.0434 15.5413L16.1375 14.358L17.0583 13.1553L17.9641 14.3386ZM13.4891 15.5413L14.395 14.358L13.4743 13.1553L12.5684 14.3386L13.4891 15.5413ZM16.187 12.0172L15.2663 13.2199L14.3456 12.0172L15.2663 10.8145L16.187 12.0172Z" fill="url(#paint55_radial_54633_139)"/>
<path fill-rule="evenodd" clip-rule="evenodd" d="M12.843 10.0545L13.4743 10.8791L14.395 9.67642L14.2519 9.48953C14.5491 9.42531 14.8542 9.39191 15.1653 9.39191C15.5364 9.39191 15.8989 9.43942 16.2496 9.53005L16.1375 9.67642L17.0583 10.8791L17.6243 10.1397C18.0039 10.3849 18.359 10.6851 18.6835 11.0323L17.9295 12.0172L18.8354 13.2005L19.575 12.2345C19.8321 12.6721 20.0519 13.1491 20.2282 13.6574L19.7067 14.3386L20.6422 15.5606L20.6564 15.5421C20.6986 15.9028 20.7205 16.2722 20.7205 16.6483C20.7205 17.0547 20.6949 17.4533 20.6458 17.8415L20.6422 17.8368L19.7215 19.0395L20.2133 19.6819C20.0348 20.1878 19.8131 20.6623 19.5543 21.0973L18.8502 20.1776L17.9443 21.3609L18.6573 22.2922C18.3308 22.6373 17.9738 22.935 17.5924 23.1774L17.0731 22.499L16.1375 23.7211L16.1848 23.7828C15.8543 23.8629 15.5136 23.9048 15.1653 23.9048C14.8774 23.9048 14.5946 23.8762 14.3185 23.821L14.395 23.7211L13.4595 22.499L12.8756 23.2617C12.4865 23.0314 12.1213 22.7443 11.7863 22.4084L12.5882 21.3609L11.6823 20.1776L10.866 21.2439C10.6002 20.8201 10.3704 20.3562 10.1826 19.8603L10.811 19.0395L9.89032 17.8368L9.71593 18.0646C9.64654 17.6066 9.61017 17.133 9.61017 16.6483C9.61017 16.1934 9.64221 15.7483 9.70351 15.3166L9.89032 15.5606L10.8258 14.3386L10.167 13.478C10.3525 12.9798 10.5805 12.5134 10.8447 12.087L11.6971 13.2005L12.603 12.0172L11.7595 10.9153C12.0925 10.5773 12.4557 10.2876 12.843 10.0545ZM16.2018 21.3609L15.2663 22.583L14.3308 21.3609L15.2663 20.1389L16.2018 21.3609ZM17.979 19.0395L17.0731 20.2228L16.1375 19.0008L17.0434 17.8175L17.979 19.0395ZM19.7709 16.6987L18.8502 17.9014L17.9147 16.6794L18.8354 15.4767L19.7709 16.6987ZM13.4595 20.2228L14.395 19.0008L13.4891 17.8175L12.5536 19.0395L13.4595 20.2228ZM11.6823 17.9014L12.6178 16.6794L11.6971 15.4767L10.7616 16.6987L11.6823 17.9014ZM16.1722 16.6794L15.2663 17.8627L14.3604 16.6794L15.2663 15.4961L16.1722 16.6794ZM17.9641 14.3386L17.0434 15.5413L16.1375 14.358L17.0583 13.1553L17.9641 14.3386ZM13.4891 15.5413L14.395 14.358L13.4743 13.1553L12.5684 14.3386L13.4891 15.5413ZM16.187 12.0172L15.2663 13.2199L14.3456 12.0172L15.2663 10.8145L16.187 12.0172Z" fill="url(#paint56_linear_54633_139)"/>
<defs>
<linearGradient id="paint0_linear_54633_139" x1="15.2675" y1="37.3819" x2="15.2675" y2="25.6458" gradientUnits="userSpaceOnUse">
<stop stop-color="#5DA112"/>
<stop offset="1" stop-color="#74A93F"/>
</linearGradient>
<linearGradient id="paint1_linear_54633_139" x1="14.2025" y1="35.067" x2="14.7963" y2="35.0329" gradientUnits="userSpaceOnUse">
<stop stop-color="#51923C"/>
<stop offset="1" stop-color="#51923C" stop-opacity="0"/>
</linearGradient>
<linearGradient id="paint2_linear_54633_139" x1="16.214" y1="35.125" x2="15.7428" y2="35.125" gradientUnits="userSpaceOnUse">
<stop stop-color="#51923C"/>
<stop offset="1" stop-color="#51923C" stop-opacity="0"/>
</linearGradient>
<linearGradient id="paint3_linear_54633_139" x1="14.2322" y1="29.6696" x2="14.6471" y2="29.681" gradientUnits="userSpaceOnUse">
<stop stop-color="#8FB87F"/>
<stop offset="1" stop-color="#8FB87F" stop-opacity="0"/>
</linearGradient>
<radialGradient id="paint4_radial_54633_139" cx="0" cy="0" r="1" gradientUnits="userSpaceOnUse" gradientTransform="translate(15.4614 33.8482) rotate(90) scale(4.4881 0.444294)">
<stop stop-color="#83B15D"/>
<stop offset="1" stop-color="#83B15D" stop-opacity="0"/>
</radialGradient>
<linearGradient id="paint5_linear_54633_139" x1="11.9737" y1="31.0861" x2="6.51254" y2="36.7457" gradientUnits="userSpaceOnUse">
<stop offset="0.0112" stop-color="#629B53"/>
<stop offset="1" stop-color="#008461"/>
</linearGradient>
<radialGradient id="paint6_radial_54633_139" cx="0" cy="0" r="1" gradientUnits="userSpaceOnUse" gradientTransform="translate(11.2857 36.2526) rotate(-40.6425) scale(3.42769 4.79132)">
<stop stop-color="#86AD7A" stop-opacity="0"/>
<stop offset="0.63401" stop-color="#86AD7A" stop-opacity="0.46"/>
<stop offset="0.676108" stop-color="#86AD7A" stop-opacity="0.59475"/>
<stop offset="0.768252" stop-color="#86AD7A" stop-opacity="0.96"/>
<stop offset="0.790291" stop-color="#86AD7A" stop-opacity="0.94"/>
<stop offset="0.802846" stop-color="#86AD7A" stop-opacity="0.93"/>
<stop offset="0.833865" stop-color="#86AD7A" stop-opacity="0.762789"/>
<stop offset="0.930501" stop-color="#86AD7A" stop-opacity="0.14347"/>
<stop offset="1" stop-color="#86AD7A" stop-opacity="0"/>
</radialGradient>
<radialGradient id="paint7_radial_54633_139" cx="0" cy="0" r="1" gradientUnits="userSpaceOnUse" gradientTransform="translate(8.10142 33.8224) rotate(-22.2537) scale(3.57653 6.39327)">
<stop stop-color="#008461"/>
<stop offset="1" stop-color="#008461" stop-opacity="0"/>
</radialGradient>
<radialGradient id="paint8_radial_54633_139" cx="0" cy="0" r="1" gradientUnits="userSpaceOnUse" gradientTransform="translate(14.1246 37.4481) rotate(-132.86) scale(2.2987 3.3968)">
<stop stop-color="#629B53"/>
<stop offset="1" stop-color="#629B53" stop-opacity="0"/>
</radialGradient>
<radialGradient id="paint9_radial_54633_139" cx="0" cy="0" r="1" gradientUnits="userSpaceOnUse" gradientTransform="translate(7.16621 31.6863) rotate(15.6375) scale(4.43334 8.17166)">
<stop stop-color="#528C39"/>
<stop offset="1" stop-color="#528C39" stop-opacity="0"/>
</radialGradient>
<radialGradient id="paint10_radial_54633_139" cx="0" cy="0" r="1" gradientUnits="userSpaceOnUse" gradientTransform="translate(12.2218 36.1297) rotate(107.454) scale(1.4269 2.65672)">
<stop stop-color="#6FA06A"/>
<stop offset="0.609936" stop-color="#6FA06A" stop-opacity="0.540395"/>
<stop offset="1" stop-color="#6FA06A" stop-opacity="0"/>
</radialGradient>
<linearGradient id="paint11_linear_54633_139" x1="13.2769" y1="37.886" x2="13.2769" y2="35.8299" gradientUnits="userSpaceOnUse">
<stop offset="0.120914" stop-color="#6F7E82"/>
<stop offset="0.70957" stop-color="#6F7E82" stop-opacity="0.213978"/>
<stop offset="1" stop-color="#6F7E82" stop-opacity="0"/>
</linearGradient>
<radialGradient id="paint12_radial_54633_139" cx="0" cy="0" r="1" gradientUnits="userSpaceOnUse" gradientTransform="translate(12.1736 31.5655) rotate(152.82) scale(4.82796 7.84804)">
<stop offset="0.845992" stop-color="#92B196" stop-opacity="0"/>
<stop offset="0.861729" stop-color="#92B196" stop-opacity="0.0662196"/>
<stop offset="0.88949" stop-color="#92B196" stop-opacity="0.233747"/>
<stop offset="1" stop-color="#92B196"/>
</radialGradient>
<radialGradient id="paint13_radial_54633_139" cx="0" cy="0" r="1" gradientUnits="userSpaceOnUse" gradientTransform="translate(10.0986 32.1276) rotate(96.6642) scale(0.891034 2.37815)">
<stop stop-color="#86AD7A" stop-opacity="0.87"/>
<stop offset="0.37267" stop-color="#86AD7A" stop-opacity="0.650087"/>
<stop offset="0.763042" stop-color="#86AD7A" stop-opacity="0.111912"/>
<stop offset="1" stop-color="#86AD7A" stop-opacity="0"/>
</radialGradient>
<radialGradient id="paint14_radial_54633_139" cx="0" cy="0" r="1" gradientUnits="userSpaceOnUse" gradientTransform="translate(13.7442 35.6784) rotate(148.307) scale(0.300036 1.48337)">
<stop stop-color="#86AD7A" stop-opacity="0.87"/>
<stop offset="0.37267" stop-color="#86AD7A" stop-opacity="0.650087"/>
<stop offset="0.763042" stop-color="#86AD7A" stop-opacity="0.111912"/>
<stop offset="1" stop-color="#86AD7A" stop-opacity="0"/>
</radialGradient>
<radialGradient id="paint15_radial_54633_139" cx="0" cy="0" r="1" gradientUnits="userSpaceOnUse" gradientTransform="translate(9.97397 33.2634) rotate(100.835) scale(1.20385 2.08988)">
<stop stop-color="#619A6A"/>
<stop offset="0.684596" stop-color="#619A6A" stop-opacity="0.470818"/>
<stop offset="1" stop-color="#619A6A" stop-opacity="0"/>
</radialGradient>
<radialGradient id="paint16_radial_54633_139" cx="0" cy="0" r="1" gradientUnits="userSpaceOnUse" gradientTransform="translate(10.6739 34.3704) rotate(109.256) scale(1.69948 2.0382)">
<stop stop-color="#619A6A"/>
<stop offset="0.684596" stop-color="#619A6A" stop-opacity="0.470818"/>
<stop offset="1" stop-color="#619A6A" stop-opacity="0"/>
</radialGradient>
<linearGradient id="paint17_linear_54633_139" x1="16.9128" y1="37.3756" x2="24.7055" y2="33.4018" gradientUnits="userSpaceOnUse">
<stop stop-color="#528C39"/>
<stop offset="1" stop-color="#81BD52"/>
</linearGradient>
<radialGradient id="paint18_radial_54633_139" cx="0" cy="0" r="1" gradientUnits="userSpaceOnUse" gradientTransform="translate(20.5607 33.1985) rotate(75.7967) scale(2.03842 2.36683)">
<stop stop-color="#87BE58"/>
<stop offset="0.738994" stop-color="#87BE58" stop-opacity="0.658973"/>
<stop offset="1" stop-color="#87BE58" stop-opacity="0"/>
</radialGradient>
<radialGradient id="paint19_radial_54633_139" cx="0" cy="0" r="1" gradientUnits="userSpaceOnUse" gradientTransform="translate(19.8715 33.4947) rotate(55.1638) scale(2.35595 1.8519)">
<stop stop-color="#87BE58"/>
<stop offset="0.738994" stop-color="#87BE58" stop-opacity="0.658973"/>
<stop offset="0.996952" stop-color="#87BE58" stop-opacity="0"/>
</radialGradient>
<radialGradient id="paint20_radial_54633_139" cx="0" cy="0" r="1" gradientUnits="userSpaceOnUse" gradientTransform="translate(18.1832 35.1498) rotate(67.1283) scale(1.80914 2.22992)">
<stop stop-color="#7BA561"/>
<stop offset="0.658115" stop-color="#7BA561" stop-opacity="0.670984"/>
<stop offset="1" stop-color="#7BA561" stop-opacity="0"/>
</radialGradient>
<radialGradient id="paint21_radial_54633_139" cx="0" cy="0" r="1" gradientUnits="userSpaceOnUse" gradientTransform="translate(18.8509 33.4654) rotate(70.4583) scale(1.70994 2.37283)">
<stop stop-color="#7BA561"/>
<stop offset="0.677527" stop-color="#7BA561" stop-opacity="0.670984"/>
<stop offset="1" stop-color="#7BA561" stop-opacity="0"/>
</radialGradient>
<radialGradient id="paint22_radial_54633_139" cx="0" cy="0" r="1" gradientUnits="userSpaceOnUse" gradientTransform="translate(19.7145 35.2673) rotate(-121.282) scale(1.07992 2.10419)">
<stop stop-color="#7BA561"/>
<stop offset="0.677527" stop-color="#7BA561" stop-opacity="0.670984"/>
<stop offset="1" stop-color="#7BA561" stop-opacity="0"/>
</radialGradient>
<radialGradient id="paint23_radial_54633_139" cx="0" cy="0" r="1" gradientUnits="userSpaceOnUse" gradientTransform="translate(20.3313 33.5093) rotate(137.691) scale(2.85102 3.05481)">
<stop stop-color="#87BE58"/>
<stop offset="0.334464" stop-color="#87BE58" stop-opacity="0.658973"/>
<stop offset="0.767767" stop-color="#87BE58" stop-opacity="0.139577"/>
<stop offset="0.920586" stop-color="#87BE58" stop-opacity="0.0613718"/>
<stop offset="0.996952" stop-color="#87BE58" stop-opacity="0"/>
</radialGradient>
<linearGradient id="paint24_linear_54633_139" x1="18.2753" y1="37.7947" x2="18.2753" y2="36.0536" gradientUnits="userSpaceOnUse">
<stop stop-color="#6A806E"/>
<stop offset="0.791074" stop-color="#6A806E" stop-opacity="0.100505"/>
<stop offset="1" stop-color="#6A806E" stop-opacity="0"/>
</linearGradient>
<linearGradient id="paint25_linear_54633_139" x1="19.4168" y1="31.0861" x2="19.4401" y2="32.1923" gradientUnits="userSpaceOnUse">
<stop stop-color="#528C39" stop-opacity="0.51"/>
<stop offset="0.716211" stop-color="#528C39" stop-opacity="0.0494158"/>
<stop offset="1" stop-color="#528C39" stop-opacity="0"/>
</linearGradient>
<radialGradient id="paint26_radial_54633_139" cx="0" cy="0" r="1" gradientUnits="userSpaceOnUse" gradientTransform="translate(18.0629 31.519) rotate(70.9061) scale(1.37372 4.6791)">
<stop stop-color="#528C39" stop-opacity="0.51"/>
<stop offset="0.716211" stop-color="#528C39" stop-opacity="0.0494158"/>
<stop offset="1" stop-color="#528C39" stop-opacity="0"/>
</radialGradient>
<radialGradient id="paint27_radial_54633_139" cx="0" cy="0" r="1" gradientUnits="userSpaceOnUse" gradientTransform="translate(22.7479 31.3527) rotate(126.378) scale(1.27346 0.258047)">
<stop stop-color="#9DD271"/>
<stop offset="1" stop-color="#9DD271" stop-opacity="0"/>
</radialGradient>
<linearGradient id="paint28_linear_54633_139" x1="18.7787" y1="7.26798" x2="12.1573" y2="28.5133" gradientUnits="userSpaceOnUse">
<stop stop-color="#FFE447"/>
<stop offset="1" stop-color="#F7B44B"/>
</linearGradient>
<radialGradient id="paint29_radial_54633_139" cx="0" cy="0" r="1" gradientUnits="userSpaceOnUse" gradientTransform="translate(15.1652 16.4192) rotate(90) scale(13.4385 10.3837)">
<stop stop-color="#C69249" stop-opacity="0"/>
<stop offset="0.550461" stop-color="#C69249" stop-opacity="0"/>
<stop offset="0.844078" stop-color="#C69249" stop-opacity="0.112206"/>
<stop offset="0.935879" stop-color="#C69249" stop-opacity="0.257891"/>
<stop offset="1" stop-color="#C69249" stop-opacity="0.52"/>
</radialGradient>
<radialGradient id="paint30_radial_54633_139" cx="0" cy="0" r="1" gradientUnits="userSpaceOnUse" gradientTransform="translate(15.1652 2.51555) rotate(90) scale(27.3421 28.5119)">
<stop stop-color="#FFF86D" stop-opacity="0.55"/>
<stop offset="0.73601" stop-color="#FFF86D" stop-opacity="0.108831"/>
<stop offset="1" stop-color="#FFF86D" stop-opacity="0"/>
</radialGradient>
<radialGradient id="paint31_radial_54633_139" cx="0" cy="0" r="1" gradientUnits="userSpaceOnUse" gradientTransform="translate(21.13 8.58689) rotate(-163.622) scale(1.34054 4.52073)">
<stop stop-color="#C69249" stop-opacity="0.58"/>
<stop offset="0.565367" stop-color="#C69249" stop-opacity="0.165921"/>
<stop offset="1" stop-color="#C69249" stop-opacity="0"/>
</radialGradient>
<radialGradient id="paint32_radial_54633_139" cx="0" cy="0" r="1" gradientUnits="userSpaceOnUse" gradientTransform="translate(23.8318 13.5351) rotate(-118.258) scale(1.32618 4.3115)">
<stop stop-color="#C69249" stop-opacity="0.58"/>
<stop offset="0.565367" stop-color="#C69249" stop-opacity="0.165921"/>
<stop offset="1" stop-color="#C69249" stop-opacity="0"/>
</radialGradient>
<radialGradient id="paint33_radial_54633_139" cx="0" cy="0" r="1" gradientUnits="userSpaceOnUse" gradientTransform="translate(23.5387 20.1481) rotate(-105.717) scale(1.25625 2.60781)">
<stop stop-color="#C69249" stop-opacity="0.58"/>
<stop offset="0.565367" stop-color="#C69249" stop-opacity="0.165921"/>
<stop offset="1" stop-color="#C69249" stop-opacity="0"/>
</radialGradient>
<radialGradient id="paint34_radial_54633_139" cx="0" cy="0" r="1" gradientUnits="userSpaceOnUse" gradientTransform="translate(21.0783 25.738) rotate(-74.17) scale(1.80246 3.90168)">
<stop stop-color="#C69249" stop-opacity="0.58"/>
<stop offset="0.565367" stop-color="#C69249" stop-opacity="0.165921"/>
<stop offset="1" stop-color="#C69249" stop-opacity="0"/>
</radialGradient>
<radialGradient id="paint35_radial_54633_139" cx="0" cy="0" r="1" gradientUnits="userSpaceOnUse" gradientTransform="translate(16.1328 27.9017) rotate(-48.1315) scale(1.77022 3.19092)">
<stop stop-color="#C69249" stop-opacity="0.58"/>
<stop offset="0.565367" stop-color="#C69249" stop-opacity="0.165921"/>
<stop offset="1" stop-color="#C69249" stop-opacity="0"/>
</radialGradient>
<radialGradient id="paint36_radial_54633_139" cx="0" cy="0" r="1" gradientUnits="userSpaceOnUse" gradientTransform="translate(9.64202 26.1124) rotate(-104.315) scale(2.08049 2.97588)">
<stop stop-color="#C69249" stop-opacity="0.58"/>
<stop offset="0.565367" stop-color="#C69249" stop-opacity="0.165921"/>
<stop offset="1" stop-color="#C69249" stop-opacity="0"/>
</radialGradient>
<radialGradient id="paint37_radial_54633_139" cx="0" cy="0" r="1" gradientUnits="userSpaceOnUse" gradientTransform="translate(6.44117 21.0353) rotate(-87.4951) scale(2.61569 3.59138)">
<stop stop-color="#C69249" stop-opacity="0.58"/>
<stop offset="0.565367" stop-color="#C69249" stop-opacity="0.165921"/>
<stop offset="1" stop-color="#C69249" stop-opacity="0"/>
</radialGradient>
<radialGradient id="paint38_radial_54633_139" cx="0" cy="0" r="1" gradientUnits="userSpaceOnUse" gradientTransform="translate(5.98391 13.7184) rotate(-56.9472) scale(1.78156 2.95606)">
<stop stop-color="#C69249" stop-opacity="0.58"/>
<stop offset="0.565367" stop-color="#C69249" stop-opacity="0.165921"/>
<stop offset="1" stop-color="#C69249" stop-opacity="0"/>
</radialGradient>
<radialGradient id="paint39_radial_54633_139" cx="0" cy="0" r="1" gradientUnits="userSpaceOnUse" gradientTransform="translate(8.61318 7.82006) rotate(-34.1103) scale(1.86394 3.79319)">
<stop stop-color="#C69249" stop-opacity="0.58"/>
<stop offset="0.565367" stop-color="#C69249" stop-opacity="0.165921"/>
<stop offset="1" stop-color="#C69249" stop-opacity="0"/>
</radialGradient>
<radialGradient id="paint40_radial_54633_139" cx="0" cy="0" r="1" gradientUnits="userSpaceOnUse" gradientTransform="translate(13.6669 4.23419) rotate(27.1127) scale(1.64282 3.97741)">
<stop stop-color="#C69249" stop-opacity="0.58"/>
<stop offset="0.565367" stop-color="#C69249" stop-opacity="0.165921"/>
<stop offset="1" stop-color="#C69249" stop-opacity="0"/>
</radialGradient>
<radialGradient id="paint41_radial_54633_139" cx="0" cy="0" r="1" gradientUnits="userSpaceOnUse" gradientTransform="translate(23.0938 22.5359) rotate(139.506) scale(1.64733 4.11435)">
<stop stop-color="#FFF86D"/>
<stop offset="0.682661" stop-color="#FFF86D" stop-opacity="0.124179"/>
<stop offset="1" stop-color="#FFF86D" stop-opacity="0"/>
</radialGradient>
<radialGradient id="paint42_radial_54633_139" cx="0" cy="0" r="1" gradientUnits="userSpaceOnUse" gradientTransform="translate(24.2546 15.5657) rotate(97.039) scale(2.53927 4.5506)">
<stop stop-color="#FFF86D"/>
<stop offset="0.682661" stop-color="#FFF86D" stop-opacity="0.124179"/>
<stop offset="1" stop-color="#FFF86D" stop-opacity="0"/>
</radialGradient>
<radialGradient id="paint43_radial_54633_139" cx="0" cy="0" r="1" gradientUnits="userSpaceOnUse" gradientTransform="translate(21.9519 9.42795) rotate(64.3266) scale(1.93928 3.89478)">
<stop stop-color="#FFF86D"/>
<stop offset="0.682661" stop-color="#FFF86D" stop-opacity="0.124179"/>
<stop offset="1" stop-color="#FFF86D" stop-opacity="0"/>
</radialGradient>
<radialGradient id="paint44_radial_54633_139" cx="0" cy="0" r="1" gradientUnits="userSpaceOnUse" gradientTransform="translate(18.809 5.32257) rotate(42.2117) scale(1.51247 3.7212)">
<stop stop-color="#FFF86D"/>
<stop offset="0.682661" stop-color="#FFF86D" stop-opacity="0.124179"/>
<stop offset="1" stop-color="#FFF86D" stop-opacity="0"/>
</radialGradient>
<radialGradient id="paint45_radial_54633_139" cx="0" cy="0" r="1" gradientUnits="userSpaceOnUse" gradientTransform="translate(6.51756 16.4193) rotate(65.4835) scale(2.09973 4.17623)">
<stop stop-color="#FFF86D"/>
<stop offset="0.682661" stop-color="#FFF86D" stop-opacity="0.124179"/>
<stop offset="1" stop-color="#FFF86D" stop-opacity="0"/>
</radialGradient>
<radialGradient id="paint46_radial_54633_139" cx="0" cy="0" r="1" gradientUnits="userSpaceOnUse" gradientTransform="translate(7.32662 22.8416) rotate(40.1914) scale(1.77926 5.74888)">
<stop stop-color="#FFF86D" stop-opacity="0.83"/>
<stop offset="0.682661" stop-color="#FFF86D" stop-opacity="0.124179"/>
<stop offset="1" stop-color="#FFF86D" stop-opacity="0"/>
</radialGradient>
<radialGradient id="paint47_radial_54633_139" cx="0" cy="0" r="1" gradientUnits="userSpaceOnUse" gradientTransform="translate(10.9134 27.3668) rotate(19.9431) scale(1.13994 4.2361)">
<stop stop-color="#FFF86D" stop-opacity="0.83"/>
<stop offset="0.682661" stop-color="#FFF86D" stop-opacity="0.124179"/>
<stop offset="1" stop-color="#FFF86D" stop-opacity="0"/>
</radialGradient>
<radialGradient id="paint48_radial_54633_139" cx="0" cy="0" r="1" gradientUnits="userSpaceOnUse" gradientTransform="translate(19.4549 27.4223) rotate(172.558) scale(1.18318 4.58713)">
<stop stop-color="#FFF86D" stop-opacity="0.83"/>
<stop offset="0.682661" stop-color="#FFF86D" stop-opacity="0.124179"/>
<stop offset="1" stop-color="#FFF86D" stop-opacity="0"/>
</radialGradient>
<radialGradient id="paint49_radial_54633_139" cx="0" cy="0" r="1" gradientUnits="userSpaceOnUse" gradientTransform="translate(8.10872 10.099) rotate(98.2001) scale(1.56731 3.63761)">
<stop stop-color="#FFF86D" stop-opacity="0.83"/>
<stop offset="0.682661" stop-color="#FFF86D" stop-opacity="0.124179"/>
<stop offset="1" stop-color="#FFF86D" stop-opacity="0"/>
</radialGradient>
<radialGradient id="paint50_radial_54633_139" cx="0" cy="0" r="1" gradientUnits="userSpaceOnUse" gradientTransform="translate(11.8763 5.6588) rotate(121.321) scale(1.57521 5.60247)">
<stop stop-color="#FFF86D" stop-opacity="0.83"/>
<stop offset="0.682661" stop-color="#FFF86D" stop-opacity="0.124179"/>
<stop offset="1" stop-color="#FFF86D" stop-opacity="0"/>
</radialGradient>
<radialGradient id="paint51_radial_54633_139" cx="0" cy="0" r="1" gradientUnits="userSpaceOnUse" gradientTransform="translate(16.6837 4.24415) rotate(174.67) scale(1.11422 5.65786)">
<stop stop-color="#FFF86D" stop-opacity="0.83"/>
<stop offset="0.682661" stop-color="#FFF86D" stop-opacity="0.124179"/>
<stop offset="1" stop-color="#FFF86D" stop-opacity="0"/>
</radialGradient>
<radialGradient id="paint52_radial_54633_139" cx="0" cy="0" r="1" gradientUnits="userSpaceOnUse" gradientTransform="translate(20.1932 4.23807) rotate(48.0172) scale(3.13676 12.3289)">
<stop stop-color="#FFF86D" stop-opacity="0.83"/>
<stop offset="0.682661" stop-color="#FFF86D" stop-opacity="0.124179"/>
<stop offset="1" stop-color="#FFF86D" stop-opacity="0"/>
</radialGradient>
<radialGradient id="paint53_radial_54633_139" cx="0" cy="0" r="1" gradientUnits="userSpaceOnUse" gradientTransform="translate(23.3129 10.4331) rotate(-109.436) scale(2.24575 7.23176)">
<stop stop-color="#FFF86D" stop-opacity="0.83"/>
<stop offset="0.682661" stop-color="#FFF86D" stop-opacity="0.124179"/>
<stop offset="1" stop-color="#FFF86D" stop-opacity="0"/>
</radialGradient>
<radialGradient id="paint54_radial_54633_139" cx="0" cy="0" r="1" gradientUnits="userSpaceOnUse" gradientTransform="translate(20.3191 15.1221) rotate(145.395) scale(8.92456 8.86709)">
<stop stop-color="#966261"/>
<stop offset="1" stop-color="#7B454A"/>
</radialGradient>
<radialGradient id="paint55_radial_54633_139" cx="0" cy="0" r="1" gradientUnits="userSpaceOnUse" gradientTransform="translate(19.3713 14.7739) rotate(138.95) scale(6.36277 6.82759)">
<stop stop-color="#8C6161"/>
<stop offset="1" stop-color="#693542"/>
</radialGradient>
<linearGradient id="paint56_linear_54633_139" x1="15.1653" y1="20.5001" x2="15.1653" y2="24.6787" gradientUnits="userSpaceOnUse">
<stop stop-color="#723152" stop-opacity="0"/>
<stop offset="1" stop-color="#723152"/>
</linearGradient>
</defs>
</svg>
