<svg width="31" height="40" viewBox="0 0 31 40" fill="none" xmlns="http://www.w3.org/2000/svg">
<path d="M14.2174 37.5238H17.8823C20.9875 37.5238 23.5342 34.3727 23.6951 30.4906C23.7046 30.275 23.5815 30.0952 23.4111 30.0952L20.0882 30.1072C18.473 30.1217 17.0138 31.1755 16.113 32.7804L16.113 27.619L17.3831 26.8143C17.639 26.6533 17.639 26.1705 17.3831 26.0095L16.113 25.18V22.9514H14.2174V31.2838L12.9378 32.1133C12.6819 32.2743 12.6819 32.7571 12.9378 32.9181L14.2174 33.7476L14.2174 37.5238Z" fill="#86D72F"/>
<path d="M14.0184 15.3991H14.8335C14.8714 15.3991 14.9093 15.3867 14.9472 15.3743C15.0136 15.4114 15.0799 15.4486 15.1557 15.4486H15.9804C17.9992 15.4486 19.639 13.3067 19.639 10.6695V3.52572C19.639 3.17905 19.4304 2.90667 19.165 2.90667H18.3404C16.8524 2.90667 15.5823 4.07048 15.0041 5.72953C14.4449 4.03334 13.1653 2.85715 11.6677 2.85715H10.8526C10.5777 2.85715 10.3597 3.14191 10.3597 3.48858V10.62C10.3597 13.2571 11.9995 15.3991 14.0184 15.3991Z" fill="#CA0B4A"/>
<path d="M10.4261 5.95238C10.4261 5.95238 13.2696 5.95238 15.1652 9.66666C17.0609 5.95238 19.9043 5.95238 19.9043 5.95238H20.9589C21.6058 5.95238 22.0096 6.75263 21.7219 7.50955C21.3109 8.59082 20.8522 9.9289 20.8522 11.5238C20.8522 12.6929 21.0635 13.448 21.2865 14.2452C21.5359 15.1365 21.8 16.0804 21.8 17.7143C21.8 20.8095 20.8522 23.9048 15.1652 23.9048C9.47827 23.9048 8.53041 20.8095 8.53043 17.7143C8.53043 16.4381 8.76739 15.5286 9.00434 14.6191C9.2413 13.7095 9.47825 12.8 9.47825 11.5238C9.47825 10.0364 9.13625 8.77235 8.76041 7.73167C8.45978 6.89927 8.88553 5.95238 9.59013 5.95238H10.4261Z" fill="#F8312F"/>
</svg>
