<svg width="32" height="33" viewBox="0 0 32 33" fill="none" xmlns="http://www.w3.org/2000/svg">
<path d="M27.9105 8.81952C20.7805 8.81952 15.0005 14.5995 14.9405 21.4795L15.0005 30.0495C15.0005 30.4795 15.3705 30.8195 15.7905 30.7895C23.7105 30.3795 30.0005 23.8395 30.0005 15.8195V8.81952H27.9105Z" fill="#F8312F"/>
<path d="M19.0605 25.7295C18.9105 25.7295 18.7605 25.6795 18.6305 25.5895C18.2905 25.3495 18.2105 24.8795 18.4505 24.5395L27.8705 11.3295C28.2905 10.7395 28.5105 10.0395 28.5105 9.31952L28.5005 5.56952C28.5005 5.15952 28.8405 4.81952 29.2505 4.81952C29.6605 4.81952 30.0005 5.14952 30.0005 5.56952L30.0205 9.31952C30.0205 10.3595 29.7005 11.3595 29.1005 12.2095L19.6805 25.4195C19.5305 25.6195 19.3005 25.7295 19.0605 25.7295Z" fill="#CA0B4A"/>
<path d="M14.5205 2.81951C9.96047 2.85951 6.13047 6.70951 6.13047 11.4295V12.8095H10.7605C16.0705 12.8095 20.4105 8.56951 20.6805 3.33951C20.7005 3.04951 20.4705 2.80951 20.1905 2.80951L14.5205 2.81951Z" fill="#E19747"/>
<path d="M6.24047 17.8295C9.37047 17.8495 12.0005 20.4995 12.0005 23.7395V24.8195H8.82047C5.17047 24.8195 2.19047 21.7795 2.00047 18.1795C1.99047 17.9895 2.14047 17.8195 2.34047 17.8195L6.24047 17.8295Z" fill="#E19747"/>
<path d="M17.2305 5.27952C17.2905 5.36952 17.3205 5.46952 17.3205 5.56952C17.3205 5.72952 17.2505 5.87952 17.1105 5.97952L8.37049 12.2095C7.81049 12.6095 7.15049 12.8195 6.46049 12.8195H4.50049C4.22049 12.8195 4.00049 12.5895 4.00049 12.3195C4.00049 12.0495 4.22049 11.8295 4.50049 11.8295H6.46049C6.94049 11.8295 7.40049 11.6795 7.79049 11.3995L16.5405 5.15952C16.7605 4.99952 17.0705 5.05952 17.2305 5.27952Z" fill="#D3883E"/>
<path d="M11.8605 23.8195H12.4905C12.7505 23.8195 12.9805 24.0195 13.0005 24.2795C13.0105 24.5695 12.7905 24.8095 12.5005 24.8095H11.8605C11.1705 24.8095 10.5105 24.5995 9.95049 24.1995L5.69049 21.1595C5.47049 20.9995 5.42049 20.6895 5.58049 20.4695C5.59049 20.4695 5.59049 20.4595 5.59049 20.4595C5.75049 20.2395 6.05049 20.1895 6.27049 20.3495L10.5305 23.3895C10.9205 23.6695 11.3805 23.8195 11.8605 23.8195Z" fill="#D3883E"/>
</svg>
