<svg width="18" height="19" viewBox="0 0 18 19" fill="none" xmlns="http://www.w3.org/2000/svg">
<path d="M17.64 1.49103C17.64 0.911033 17.27 0.411033 16.81 0.401033C13.54 0.381033 10.73 5.17103 9.49 9.86103C9.27 10.691 8.37 10.671 8.15 9.84103C6.92 5.17103 4.12 0.401033 0.86 0.401033C0.39 0.401033 0.01 0.891033 0.01 1.49103V7.70103L0 7.69103C0 8.08103 0.02 8.47103 0.05 8.85103C0.13 9.95103 0.34 11.931 0.67 12.901C1.99 16.991 5.14 18.931 8.83 18.931C12.24 18.931 15.2 17.391 16.66 13.781C17.29 12.321 17.65 9.72103 17.65 7.94103L17.64 1.49103Z" fill="#FF6DC6"/>
</svg>
