<svg width="11" height="14" viewBox="0 0 11 14" fill="none" xmlns="http://www.w3.org/2000/svg">
<path d="M5.64824 2.78784C5.93155 2.57376 6.12216 2.17364 6.12216 1.71537C6.12216 1.03159 5.6978 0.47728 5.17433 0.47728C4.65086 0.47728 4.2265 1.03159 4.2265 1.71537C4.2265 2.17364 4.41711 2.57376 4.70042 2.78784V4.37807C4.03169 4.55766 3.46702 5.10974 3.13911 5.861L1.97847 5.36958C1.88755 4.80972 1.50697 4.38967 1.05128 4.38967C0.527811 4.38967 0.103455 4.94398 0.103455 5.62776C0.103455 6.31154 0.527811 6.86586 1.05128 6.86586C1.29541 6.86586 1.51798 6.74529 1.68601 6.54726L2.84705 7.03885C2.8379 7.14875 2.8332 7.2604 2.8332 7.37348C2.8332 8.16617 3.06409 8.88843 3.44282 9.43174L2.72411 10.723C2.69143 10.7186 2.65826 10.7163 2.62468 10.7163C2.10121 10.7163 1.67685 11.2706 1.67685 11.9544C1.67685 12.6382 2.10121 13.1925 2.62468 13.1925C3.14815 13.1925 3.5725 12.6382 3.5725 11.9544C3.5725 11.7751 3.54333 11.6047 3.49084 11.4509L4.20912 10.1604C4.50342 10.3346 4.8302 10.4316 5.17433 10.4316C5.51698 10.4316 5.84245 10.3354 6.13576 10.1626L6.84901 11.4489C6.7961 11.6033 6.76667 11.7743 6.76667 11.9544C6.76667 12.6382 7.19103 13.1925 7.7145 13.1925C8.23797 13.1925 8.66232 12.6382 8.66232 11.9544C8.66232 11.2706 8.23797 10.7163 7.7145 10.7163C7.68149 10.7163 7.64888 10.7185 7.61674 10.7228L6.90304 9.43574C7.28343 8.89197 7.51546 8.16812 7.51546 7.37348C7.51546 7.25969 7.5107 7.14736 7.50143 7.0368L8.65364 6.54782C8.82161 6.74552 9.04399 6.86586 9.28789 6.86586C9.81136 6.86586 10.2357 6.31154 10.2357 5.62776C10.2357 4.94398 9.81136 4.38967 9.28789 4.38967C8.83198 4.38967 8.45125 4.81013 8.36057 5.3704L7.20876 5.85921C6.88073 5.10886 6.31644 4.55752 5.64824 4.37807V2.78784Z" fill="white"/>
</svg>
