<svg width="11" height="13" viewBox="0 0 11 13" fill="none" xmlns="http://www.w3.org/2000/svg">
<path d="M5.64824 2.4069C5.93155 2.19283 6.12216 1.79271 6.12216 1.33444C6.12216 0.650658 5.6978 0.096344 5.17433 0.096344C4.65086 0.096344 4.2265 0.650658 4.2265 1.33444C4.2265 1.79271 4.41711 2.19283 4.70042 2.4069V3.99714C4.03169 4.17672 3.46702 4.72881 3.13911 5.48007L1.97847 4.98864C1.88755 4.42879 1.50697 4.00873 1.05128 4.00873C0.527811 4.00873 0.103455 4.56304 0.103455 5.24682C0.103455 5.93061 0.527811 6.48492 1.05128 6.48492C1.29541 6.48492 1.51798 6.36436 1.68601 6.16633L2.84705 6.65792C2.8379 6.76782 2.8332 6.87946 2.8332 6.99254C2.8332 7.78524 3.06409 8.50749 3.44282 9.05081L2.72411 10.3421C2.69143 10.3377 2.65826 10.3354 2.62468 10.3354C2.10121 10.3354 1.67685 10.8897 1.67685 11.5735C1.67685 12.2573 2.10121 12.8116 2.62468 12.8116C3.14815 12.8116 3.5725 12.2573 3.5725 11.5735C3.5725 11.3942 3.54333 11.2238 3.49084 11.07L4.20912 9.77946C4.50342 9.95365 4.8302 10.0506 5.17433 10.0506C5.51698 10.0506 5.84245 9.95448 6.13576 9.78169L6.84901 11.068C6.7961 11.2223 6.76667 11.3934 6.76667 11.5735C6.76667 12.2573 7.19103 12.8116 7.7145 12.8116C8.23797 12.8116 8.66232 12.2573 8.66232 11.5735C8.66232 10.8897 8.23797 10.3354 7.7145 10.3354C7.68149 10.3354 7.64888 10.3376 7.61674 10.3419L6.90304 9.05481C7.28343 8.51104 7.51546 7.78719 7.51546 6.99254C7.51546 6.87876 7.5107 6.76642 7.50143 6.65586L8.65364 6.16689C8.82161 6.36458 9.04399 6.48492 9.28789 6.48492C9.81136 6.48492 10.2357 5.93061 10.2357 5.24682C10.2357 4.56304 9.81136 4.00873 9.28789 4.00873C8.83198 4.00873 8.45125 4.4292 8.36057 4.98946L7.20876 5.47827C6.88073 4.72793 6.31644 4.17658 5.64824 3.99714V2.4069Z" fill="white"/>
</svg>
