<svg width="16" height="13" viewBox="0 0 16 13" fill="none" xmlns="http://www.w3.org/2000/svg">
<path d="M8.95192 0.340958H7.05627V10.5583C6.34695 8.25912 4.62978 6.61811 2.62044 6.61811H0.658442C0.50679 6.61811 0.393051 6.77906 0.393051 6.96478V7.48478C0.393051 10.4562 2.24131 12.8705 4.43079 12.8953L7.16053 12.9076C7.19281 12.9076 7.22396 12.8988 7.2525 12.8829H8.95192V12.8747C8.98602 12.8957 9.02443 12.9076 9.06565 12.9076H11.0277C13.5868 12.9076 15.672 10.2457 15.8047 6.9524C15.8142 6.76668 15.7004 6.61811 15.5677 6.61811L12.838 6.63049C11.0193 6.65106 9.43596 8.32046 8.95192 10.5884V0.340958Z" fill="#86D72F"/>
</svg>
