<svg width="28" height="28" viewBox="0 0 28 28" fill="none" xmlns="http://www.w3.org/2000/svg">
<path d="M24.2296 16.7655C26.6996 15.9655 28.1896 13.5755 27.9896 11.0855C27.9696 10.8555 27.7896 10.6555 27.5596 10.6155C27.5596 10.6155 26.6696 10.4255 26.4696 10.3855C26.3696 10.3655 26.3296 10.2355 26.3896 10.1655C26.5196 10.0255 27.1396 9.3255 27.1396 9.3255C27.2996 9.1555 27.3296 8.8855 27.2096 8.6855C25.9196 6.5555 23.3096 5.4955 20.8296 6.3055C20.1196 6.5355 19.4996 6.9555 18.9596 7.4855C19.2996 6.8055 19.4996 6.0955 19.4996 5.3455C19.4996 2.7455 17.6896 0.585498 15.2596 0.0154985C15.0296 -0.0345015 14.7896 0.0754984 14.6696 0.275498C14.6696 0.275498 14.2096 1.0655 14.1096 1.2455C14.0596 1.3355 13.9196 1.3255 13.8796 1.2555C13.7796 1.0855 13.3196 0.275498 13.3196 0.275498C13.1996 0.0754984 12.9596 -0.0445015 12.7396 0.0154985C10.3196 0.575498 8.49963 2.7355 8.49963 5.3355C8.49963 6.0855 8.70963 6.7955 9.03963 7.4755C8.49963 6.9455 7.88963 6.5355 7.17963 6.3055C4.69963 5.4955 2.08963 6.5555 0.799627 8.6855C0.679627 8.8855 0.709627 9.1455 0.869627 9.3255C0.869627 9.3255 1.47963 10.0055 1.61963 10.1555C1.68963 10.2255 1.63963 10.3655 1.54963 10.3855C1.35963 10.4255 0.449626 10.6155 0.449626 10.6155C0.219626 10.6655 0.0396265 10.8555 0.0196265 11.0855C-0.190373 13.5655 1.29963 15.9555 3.77963 16.7655C4.49963 16.9955 5.23963 17.0255 5.99963 16.9055C5.31963 17.2555 4.71963 17.7155 4.27963 18.3255C2.74963 20.4255 2.94963 23.2355 4.57963 25.1255C4.72963 25.3055 4.98963 25.3555 5.20963 25.2555C5.20963 25.2555 6.03963 24.8855 6.22963 24.7955C6.31963 24.7555 6.42963 24.8355 6.41963 24.9255C6.39963 25.1155 6.29963 26.0455 6.29963 26.0455C6.27963 26.2755 6.39963 26.5155 6.61963 26.6055C8.91963 27.5655 11.6496 26.8855 13.1796 24.7855C13.6196 24.1755 13.8696 23.4855 13.9996 22.7355C14.1296 23.4855 14.3796 24.1855 14.8196 24.7855C16.3496 26.8855 19.0796 27.5655 21.3796 26.6055C21.5996 26.5155 21.7196 26.2855 21.6996 26.0455C21.6996 26.0455 21.5996 25.1355 21.5796 24.9355C21.5696 24.8355 21.6796 24.7555 21.7696 24.7955C21.9496 24.8755 22.7996 25.2555 22.7996 25.2555C23.0096 25.3555 23.2796 25.3055 23.4296 25.1255C25.0596 23.2355 25.2596 20.4255 23.7296 18.3255C23.2896 17.7155 22.6896 17.2655 22.0096 16.9055C22.7696 17.0255 23.5096 16.9955 24.2296 16.7655Z" fill="#FF6DC6"/>
</svg>
