<svg width="28" height="28" viewBox="0 0 28 28" fill="none" xmlns="http://www.w3.org/2000/svg">
<path d="M24.2296 17.1465C26.6996 16.3464 28.1896 13.9564 27.9896 11.4664C27.9696 11.2365 27.7896 11.0364 27.5596 10.9964C27.5596 10.9964 26.6696 10.8064 26.4696 10.7664C26.3696 10.7464 26.3296 10.6164 26.3896 10.5464C26.5196 10.4064 27.1396 9.70645 27.1396 9.70645C27.2996 9.53645 27.3296 9.26645 27.2096 9.06645C25.9196 6.93645 23.3096 5.87645 20.8296 6.68645C20.1196 6.91645 19.4996 7.33645 18.9596 7.86645C19.2996 7.18645 19.4996 6.47645 19.4996 5.72645C19.4996 3.12645 17.6896 0.966449 15.2596 0.396449C15.0296 0.346449 14.7896 0.456449 14.6696 0.656449C14.6696 0.656449 14.2096 1.44645 14.1096 1.62645C14.0596 1.71645 13.9196 1.70645 13.8796 1.63645C13.7796 1.46645 13.3196 0.656449 13.3196 0.656449C13.1996 0.456449 12.9596 0.336449 12.7396 0.396449C10.3196 0.956449 8.49963 3.11645 8.49963 5.71645C8.49963 6.46645 8.70963 7.17645 9.03963 7.85645C8.49963 7.32645 7.88963 6.91645 7.17963 6.68645C4.69963 5.87645 2.08963 6.93645 0.799627 9.06645C0.679627 9.26645 0.709627 9.52645 0.869627 9.70645C0.869627 9.70645 1.47963 10.3864 1.61963 10.5364C1.68963 10.6064 1.63963 10.7464 1.54963 10.7664C1.35963 10.8064 0.449626 10.9964 0.449626 10.9964C0.219626 11.0464 0.0396265 11.2365 0.0196265 11.4664C-0.190373 13.9464 1.29963 16.3364 3.77963 17.1465C4.49963 17.3764 5.23963 17.4065 5.99963 17.2864C5.31963 17.6364 4.71963 18.0964 4.27963 18.7064C2.74963 20.8064 2.94963 23.6164 4.57963 25.5064C4.72963 25.6864 4.98963 25.7365 5.20963 25.6364C5.20963 25.6364 6.03963 25.2664 6.22963 25.1764C6.31963 25.1364 6.42963 25.2164 6.41963 25.3064C6.39963 25.4965 6.29963 26.4264 6.29963 26.4264C6.27963 26.6564 6.39963 26.8965 6.61963 26.9865C8.91963 27.9464 11.6496 27.2665 13.1796 25.1665C13.6196 24.5564 13.8696 23.8664 13.9996 23.1164C14.1296 23.8664 14.3796 24.5665 14.8196 25.1665C16.3496 27.2665 19.0796 27.9464 21.3796 26.9865C21.5996 26.8965 21.7196 26.6664 21.6996 26.4264C21.6996 26.4264 21.5996 25.5165 21.5796 25.3165C21.5696 25.2164 21.6796 25.1364 21.7696 25.1764C21.9496 25.2564 22.7996 25.6364 22.7996 25.6364C23.0096 25.7365 23.2796 25.6864 23.4296 25.5064C25.0596 23.6164 25.2596 20.8064 23.7296 18.7064C23.2896 18.0964 22.6896 17.6465 22.0096 17.2864C22.7696 17.4065 23.5096 17.3764 24.2296 17.1465Z" fill="#FF6DC6"/>
</svg>
